<?xml version="1.0" encoding="UTF-8"?>
<svg version="1.1" xmlns="http://www.w3.org/2000/svg" width="400" height="342">
<path d="M0 0 C7.04791929 5.09583859 7.04791929 5.09583859 9 9 C9.9088797 9.00358253 9.9088797 9.00358253 10.83612061 9.00723743 C25.60169675 9.06645746 40.36712685 9.14205222 55.13252258 9.23571491 C62.27306642 9.2806182 69.41356098 9.32004532 76.55419922 9.34643555 C82.78034992 9.36946008 89.006344 9.40290749 95.23237038 9.44870156 C98.52689647 9.47257418 101.82123584 9.48978683 105.11584473 9.49761391 C108.80011975 9.50725205 112.48383242 9.53530983 116.16796875 9.56762695 C117.25194443 9.56619186 118.3359201 9.56475677 119.45274353 9.5632782 C125.6604328 9.6401668 130.37278326 10.30723147 136 13 C141.18032109 18.44597859 141.17254825 22.13097561 141.11349487 29.41378784 C140.94471837 34.74678944 140.377141 39.99270771 139.72265625 45.28515625 C139.52644936 46.94133217 139.52644936 46.94133217 139.32627869 48.63096619 C139.05156174 50.93791626 138.77325538 53.24444158 138.49145508 55.55053711 C138.05984854 59.08420819 137.63935805 62.61907011 137.22070312 66.15429688 C136.95115881 68.40632645 136.68099883 70.65828244 136.41015625 72.91015625 C136.28407486 73.96429214 136.15799347 75.01842804 136.02809143 76.10450745 C135.90804245 77.08330368 135.78799347 78.06209991 135.66430664 79.07055664 C135.50775352 80.35743126 135.50775352 80.35743126 135.34803772 81.67030334 C135.02518403 83.83142302 134.57111857 85.89242859 134 88 C135.19077148 87.98952637 136.38154297 87.97905273 137.60839844 87.96826172 C142.02894074 87.93204444 146.44946993 87.90909318 150.87011719 87.89013672 C152.78290004 87.8800831 154.69566755 87.86643827 156.60839844 87.84912109 C159.35876252 87.82484478 162.10892328 87.8135105 164.859375 87.8046875 C165.71368103 87.79436493 166.56798706 87.78404236 167.44818115 87.77340698 C168.24870911 87.77325592 169.04923706 87.77310486 169.87402344 87.77294922 C170.57573669 87.768508 171.27744995 87.76406677 172.00042725 87.75949097 C174.40436288 88.04863685 175.95332846 88.71261048 178 90 C181.811119 96.19102943 181.18585554 101.97310964 180.70703125 109.0390625 C180.64094162 110.19691254 180.57485199 111.35476257 180.50675964 112.54769897 C180.36392257 114.99402685 180.21297178 117.43989274 180.05444336 119.88525391 C179.81472343 123.59063224 179.59944411 127.29678009 179.38867188 131.00390625 C179.24623482 133.39071156 179.10239869 135.77743387 178.95703125 138.1640625 C178.89232132 139.25619049 178.82761139 140.34831848 178.76094055 141.47354126 C177.40446936 162.08628943 177.40446936 162.08628943 174.61701965 165.88442993 C170.05015533 169.7411383 166.78809725 170.12777468 160.97265625 170.1328125 C160.26910507 170.13376923 159.56555389 170.13472595 158.84068298 170.13571167 C157.34520377 170.1363932 155.84972161 170.13454078 154.35424805 170.13037109 C152.10263084 170.12509405 149.85121976 170.13027921 147.59960938 170.13671875 C139.68843435 170.14000863 131.86620203 169.93344038 124 169 C124.02578125 170.24652344 124.0515625 171.49304688 124.078125 172.77734375 C124.07369872 178.43302576 123.46116568 183.957488 122.75 189.5625 C122.58564453 191.0465332 122.58564453 191.0465332 122.41796875 192.56054688 C121.47313718 200.05455304 119.88602983 206.75932047 114 211.875 C108.64809935 215.66592963 104.84754216 216.33289779 98.296875 216.44921875 C96.96702324 216.48243729 96.96702324 216.48243729 95.61030579 216.5163269 C92.65699227 216.58498829 89.70368054 216.63723551 86.75 216.6875 C85.73743134 216.70779266 84.72486267 216.72808533 83.68161011 216.74899292 C57.11589754 217.26950315 30.55832871 216.65589114 4 216 C5.08166013 220.30593271 6.03889732 223.62763663 8.94140625 227.015625 C9.52059814 227.70382324 10.09979004 228.39202148 10.6965332 229.10107422 C11.31230225 229.81021973 11.92807129 230.51936523 12.5625 231.25 C13.83866562 232.75770759 15.11470737 234.26552004 16.390625 235.7734375 C17.01130859 236.49885742 17.63199219 237.22427734 18.27148438 237.97167969 C20.49077751 240.57590106 22.65459231 243.21970224 24.8125 245.875 C25.5034375 246.720625 26.194375 247.56625 26.90625 248.4375 C27.5971875 249.283125 28.288125 250.12875 29 251 C30.19109375 252.4540625 30.19109375 252.4540625 31.40625 253.9375 C32.59734375 255.3915625 32.59734375 255.3915625 33.8125 256.875 C34.52019531 257.73867188 35.22789062 258.60234375 35.95703125 259.4921875 C36.63121094 260.31976563 37.30539063 261.14734375 38 262 C38.74636719 262.87785156 39.49273437 263.75570313 40.26171875 264.66015625 C42 267 42 267 42 269.5625 C40.8239412 272.42914332 39.32031952 273.97907654 37 276 C38.65 277.98 40.3 279.96 42 282 C42.556875 281.86722656 43.11375 281.73445313 43.6875 281.59765625 C48.7858701 280.41779695 53.79787441 279.56750461 59 279 C58.57389641 283.81497062 56.73444129 285.60639722 53.125 288.6875 C52.24070313 289.45449219 51.35640625 290.22148437 50.4453125 291.01171875 C45.54027505 295 45.54027505 295 41 295 C40.62875 296.2065625 40.62875 296.2065625 40.25 297.4375 C39.8375 298.283125 39.425 299.12875 39 300 C36.921875 300.66015625 36.921875 300.66015625 35 301 C34.27554688 300.0615625 33.55109375 299.123125 32.8046875 298.15625 C31.82907745 296.93673743 30.85246182 295.71802885 29.875 294.5 C29.400625 293.87996094 28.92625 293.25992187 28.4375 292.62109375 C27.03682412 290.89864098 25.7379515 289.3837838 24 288 C20.93476061 287.81761205 20.93476061 287.81761205 18 288 C15.76171875 286.19921875 15.76171875 286.19921875 13.6875 283.6875 C12.91535156 282.7696875 12.14320313 281.851875 11.34765625 280.90625 C10.57292969 279.9471875 9.79820312 278.988125 9 278 C8.27683594 277.1234375 7.55367187 276.246875 6.80859375 275.34375 C5.32645412 273.54078945 3.85141437 271.73197349 2.3828125 269.91796875 C-0.20756233 266.74582121 -2.84698595 263.61970543 -5.5 260.5 C-8.94652891 256.44071491 -12.37033179 252.3653783 -15.75 248.25 C-16.48347656 247.37214844 -17.21695313 246.49429688 -17.97265625 245.58984375 C-20 243 -20 243 -21.62109375 240.31640625 C-24.09057088 236.36893781 -25.63200757 234.36887825 -30.23046875 233.12890625 C-35.36089545 232.77148102 -39.29350825 232.83440519 -43.625 235.79296875 C-45.90409457 238.09184713 -47.94526544 240.50034261 -50 243 C-51.18054774 244.09328986 -52.38890936 245.15742446 -53.625 246.1875 C-57.64781217 249.63907284 -61.50942147 253.24982528 -65.375 256.875 C-70.35542198 261.54322919 -75.36906269 266.1640125 -80.4609375 270.7109375 C-84.13015308 274.01887647 -87.74822384 277.38179702 -91.35986328 280.75244141 C-101.31709652 290 -101.31709652 290 -104.1875 290 C-106.17232786 288.90492256 -107.51625536 287.70630634 -109 286 C-112.12197478 287.3089572 -112.12197478 287.3089572 -114 290 C-112.9171875 290.3403125 -112.9171875 290.3403125 -111.8125 290.6875 C-108.41542913 292.27279974 -106.4250448 294.15923323 -104 297 C-104 297.99 -104 298.98 -104 300 C-112.62189135 300.84528347 -120.84368102 297.77087932 -128 293 C-128.495 291.515 -128.495 291.515 -129 290 C-131.01508358 289.26676204 -131.01508358 289.26676204 -133 289 C-133.80859375 286.83203125 -133.80859375 286.83203125 -134 284 C-131.91015625 281.32421875 -131.91015625 281.32421875 -129.0625 278.6875 C-128.12535156 277.80449219 -127.18820313 276.92148437 -126.22265625 276.01171875 C-125.12244141 275.01591797 -125.12244141 275.01591797 -124 274 C-124.7425 273.13375 -124.7425 273.13375 -125.5 272.25 C-127 270 -127 270 -127 266 C-125.12109375 264.09765625 -125.12109375 264.09765625 -122.4375 262.0625 C-121.43332031 261.27746094 -120.42914063 260.49242187 -119.39453125 259.68359375 C-118.84619629 259.25546387 -118.29786133 258.82733398 -117.73291016 258.38623047 C-114.61634887 255.89315707 -111.62782039 253.25295191 -108.625 250.625 C-101.80643869 244.68218507 -94.92055444 238.82353569 -88 233 C-88.59425781 232.98541748 -89.18851562 232.97083496 -89.80078125 232.95581055 C-92.53445634 232.88061322 -95.26700417 232.78419478 -98 232.6875 C-99.40185547 232.65366211 -99.40185547 232.65366211 -100.83203125 232.61914062 C-108.99031465 232.30536049 -115.9188807 230.90226285 -122 225 C-124.0855699 221.92130158 -124.06615749 219.65069057 -124 216 C-125.02883301 216.02094727 -126.05766602 216.04189453 -127.11767578 216.06347656 C-130.95298213 216.13614994 -134.78822822 216.18189821 -138.62402344 216.21972656 C-140.28070325 216.23978009 -141.93731282 216.26703029 -143.59375 216.30175781 C-145.98194758 216.35055512 -148.36920547 216.37303064 -150.7578125 216.390625 C-151.85973434 216.42159271 -151.85973434 216.42159271 -152.98391724 216.45318604 C-158.15080924 216.45541523 -161.03527535 215.27206962 -165 212 C-169.55274294 205.32264369 -168.1270173 197.73569804 -167.08203125 190.11523438 C-166.98449554 189.3727948 -166.88695984 188.63035522 -166.78646851 187.86541748 C-166.46672001 185.44084883 -166.13967854 183.01732618 -165.8125 180.59375 C-165.58784418 178.90130523 -165.3636488 177.20879929 -165.13989258 175.51623535 C-164.5526419 171.08352677 -163.95917872 166.65167188 -163.36437988 162.2199707 C-162.75736548 157.68881663 -162.15628276 153.15687616 -161.5546875 148.625 C-160.3755674 139.74922419 -159.18987698 130.87433969 -158 122 C-159.09771729 121.82404297 -160.19543457 121.64808594 -161.32641602 121.46679688 C-162.78152777 121.21811998 -164.23651838 120.96873345 -165.69140625 120.71875 C-166.4131604 120.60499023 -167.13491455 120.49123047 -167.87854004 120.37402344 C-173.96785761 119.30383239 -178.21849732 117.05732882 -182 112 C-184.0077921 105.97662369 -184.04953453 99.26053591 -181.375 93.5 C-175.44962381 87.2627619 -169.44954462 85.52680535 -161 85 C-158.30632701 85.22659901 -155.67615724 85.59828741 -153 86 C-152.91363281 84.98550781 -152.82726562 83.97101563 -152.73828125 82.92578125 C-151.72430554 71.68945647 -150.38872869 60.48947205 -148.94369507 49.30136108 C-148.73263393 47.65307119 -148.52636997 46.00415934 -148.32510376 44.35464478 C-145.74043135 23.28013515 -145.74043135 23.28013515 -138.9375 16.6875 C-129.43912131 9.71688355 -119.5328597 9.46989617 -108.23525238 9.63640594 C-105.61930765 9.67260237 -103.00467012 9.67980682 -100.38848877 9.67926025 C-92.95975696 9.68186591 -85.53178112 9.72858459 -78.10351562 9.81103516 C-73.53879601 9.85969878 -68.97531396 9.86942522 -64.4103775 9.85544586 C-62.68001776 9.85804728 -60.94961027 9.87561487 -59.21956635 9.90877533 C-49.9088276 10.41933929 -49.9088276 10.41933929 -41.51013184 7.24694824 C-39.65550942 5.18020941 -39.65550942 5.18020941 -38.36334229 2.95782471 C-30.76072213 -7.95990135 -9.84508944 -5.26597807 0 0 Z M-168.75 99.25 C-170.24915434 100.93420967 -170.24915434 100.93420967 -169.75 103.125 C-169.15045529 104.98085115 -169.15045529 104.98085115 -168 106 C-165 106.16666667 -165 106.16666667 -162 106 C-160.73527935 104.94570314 -160.73527935 104.94570314 -160.75 102.5625 C-160.8325 101.716875 -160.915 100.87125 -161 100 C-164.11408827 97.92394116 -165.55901822 96.9707273 -168.75 99.25 Z " fill="#CBB1F3" transform="translate(202,23)"/>
<path d="M0 0 C5.52176131 3.6994885 9.08450732 7.51102668 11 14 C11.44496829 16.88849366 11.52511212 19.70540177 11.5 22.625 C11.49033203 23.81186401 11.49033203 23.81186401 11.48046875 25.02270508 C11.25247886 32.42862663 9.33380028 38.38036779 6 45 C5.52602783 45.94649414 5.52602783 45.94649414 5.04248047 46.91210938 C1.69526792 53.53891401 -1.87119595 59.80679392 -6 66 C7.365 66.495 7.365 66.495 21 67 C21 68.98 21 70.96 21 73 C22.65 73 24.3 73 26 73 C25.48850143 85.02903535 24.33226389 96.95711367 23.09326172 108.93066406 C22.1381881 118.28257454 21.39937949 127.60769611 21 137 C18.36 137.33 15.72 137.66 13 138 C12.67 141.3 12.34 144.6 12 148 C11.34 148 10.68 148 10 148 C9.01374133 151.2947112 8.87105467 154.28691334 8.8671875 157.71875 C8.86525391 159.36423828 8.86525391 159.36423828 8.86328125 161.04296875 C8.86714844 162.18378906 8.87101563 163.32460937 8.875 164.5 C8.87113281 165.64082031 8.86726562 166.78164062 8.86328125 167.95703125 C8.86457031 169.05402344 8.86585938 170.15101563 8.8671875 171.28125 C8.86887939 172.78268555 8.86887939 172.78268555 8.87060547 174.31445312 C8.98580573 176.70540194 9.31624854 178.71584914 10 181 C8.700625 181.3403125 8.700625 181.3403125 7.375 181.6875 C3.56690105 183.16842737 0.50968164 184.74875598 -2 188 C-2.85414452 191.10831811 -2.88513441 194.10242688 -2.875 197.3125 C-2.9059375 198.56643555 -2.9059375 198.56643555 -2.9375 199.84570312 C-2.98438005 201.8967055 -2.99573929 203.94846635 -3 206 C-6.18695999 206.34978829 -7.55217121 206.34694429 -10.1328125 204.34765625 C-14.636347 199.18183727 -17.47526187 194.71837737 -19 188 C-13.47239641 185.89424625 -8.93002267 184.62148791 -3 185 C-3 184.01 -3 183.02 -3 182 C-5.08368538 182.31014392 -7.16693668 182.6232052 -9.25 182.9375 C-10.41015625 183.11152344 -11.5703125 183.28554687 -12.765625 183.46484375 C-15.23106961 183.8727736 -17.59424562 184.33901303 -20 185 C-20 183.35 -20 181.7 -20 180 C-14.39 179.67 -8.78 179.34 -3 179 C-3 178.01 -3 177.02 -3 176 C-8.61 176 -14.22 176 -20 176 C-20 169 -20 169 -19 168 C-16.30345146 167.92680379 -13.63308542 167.90757463 -10.9375 167.9375 C-10.17888672 167.94201172 -9.42027344 167.94652344 -8.63867188 167.95117188 C-6.75908129 167.9629932 -4.87953101 167.98092922 -3 168 C-3 167.01 -3 166.02 -3 165 C-7.95 165 -12.9 165 -18 165 C-15.20877755 159.17484011 -11.8539398 155.91828137 -6.73046875 151.9921875 C-5.87388672 151.00605469 -5.87388672 151.00605469 -5 150 C-5.33 148.35 -5.66 146.7 -6 145 C-10.29 144.34 -14.58 143.68 -19 143 C-19 142.34 -19 141.68 -19 141 C-18.01 140.67 -17.02 140.34 -16 140 C-15.34 136.37 -14.68 132.74 -14 129 C-14.99 129 -15.98 129 -17 129 C-16.42655063 126.13275314 -16.1385485 125.1385485 -14 123 C-13.66666667 120.5 -13.66666667 120.5 -14 118 C-14.66 117.34 -15.32 116.68 -16 116 C-21.81075022 116.52825002 -28.17373196 118.78248798 -33 122 C-35 121 -35 121 -35.75 119 C-36.89868187 116.66839733 -36.89868187 116.66839733 -40 116.125 C-40.99 116.08375 -41.98 116.0425 -43 116 C-45.33278733 117.89107141 -45.33278733 117.89107141 -45.1875 121.0625 C-45.33187793 123.88833136 -45.33187793 123.88833136 -44 125 C-42.31816052 125.23287008 -40.6287584 125.41264166 -38.9375 125.5625 C-38.01839844 125.64628906 -37.09929687 125.73007813 -36.15234375 125.81640625 C-35.44207031 125.87699219 -34.73179687 125.93757812 -34 126 C-31.47346685 132.16645379 -30.68718478 136.43592388 -32 143 C-29.69 143 -27.38 143 -25 143 C-26.51816567 146.5750353 -28.63152221 148.8997513 -31.375 151.625 C-32.14585937 152.40101563 -32.91671875 153.17703125 -33.7109375 153.9765625 C-35.7670065 155.79404329 -37.49265929 156.93523887 -40 158 C-41.3271261 154.0186217 -41.06915913 150.14954773 -41 146 C-41.66 146 -42.32 146 -43 146 C-42.95359375 146.97582031 -42.9071875 147.95164063 -42.859375 148.95703125 C-42.82328125 150.22933594 -42.7871875 151.50164062 -42.75 152.8125 C-42.70359375 154.07707031 -42.6571875 155.34164062 -42.609375 156.64453125 C-43 160 -43 160 -44.953125 161.76171875 C-45.62859375 162.17035156 -46.3040625 162.57898438 -47 163 C-47.33 163.99 -47.66 164.98 -48 166 C-47.4225 165.649375 -46.845 165.29875 -46.25 164.9375 C-44 164 -44 164 -41.875 164.0625 C-40 165 -40 165 -38.75 167.5625 C-38.5025 168.366875 -38.255 169.17125 -38 170 C-44.75 174 -44.75 174 -47 174 C-46.67 175.65 -46.34 177.3 -46 179 C-66.88698603 179.23745763 -87.65479765 178.6090928 -108.51348877 177.60931396 C-112.42347843 177.42340079 -116.33382466 177.24530038 -120.24414062 177.06640625 C-127.8297817 176.71828305 -135.41500688 176.36199615 -143 176 C-143 174.02 -143 172.04 -143 170 C-144.32 170 -145.64 170 -147 170 C-146.31183243 164.41985861 -145.13373561 159.07147238 -143.75 153.625 C-143.53182617 152.75738037 -143.31365234 151.88976074 -143.08886719 150.99584961 C-141.41854469 144.43941562 -139.58393491 137.94119752 -137.61230469 131.46923828 C-136.55771685 127.99565724 -135.68198939 124.56366158 -135 121 C-135.88671387 121.01571045 -136.77342773 121.0314209 -137.68701172 121.04760742 C-141.02317322 121.09918409 -144.35890208 121.13656491 -147.6953125 121.16479492 C-149.1306025 121.17974586 -150.56584791 121.20011424 -152.00097656 121.22631836 C-172.60572037 121.59272071 -172.60572037 121.59272071 -179.5625 115 C-183.97465903 109.56965042 -183.63394633 103.74126031 -183 97 C-180.71368157 92.07562185 -177.83763593 89.41881796 -173 87 C-166.00637164 85.17771655 -160.09311447 84.93526683 -153 86 C-152.91363281 84.98550781 -152.82726562 83.97101563 -152.73828125 82.92578125 C-151.72430554 71.68945647 -150.38872869 60.48947205 -148.94369507 49.30136108 C-148.73263393 47.65307119 -148.52636997 46.00415934 -148.32510376 44.35464478 C-145.74043135 23.28013515 -145.74043135 23.28013515 -138.9375 16.6875 C-129.43912131 9.71688355 -119.5328597 9.46989617 -108.23525238 9.63640594 C-105.61930765 9.67260237 -103.00467012 9.67980682 -100.38848877 9.67926025 C-92.95975696 9.68186591 -85.53178112 9.72858459 -78.10351562 9.81103516 C-73.53879601 9.85969878 -68.97531396 9.86942522 -64.4103775 9.85544586 C-62.68001776 9.85804728 -60.94961027 9.87561487 -59.21956635 9.90877533 C-49.9088276 10.41933929 -49.9088276 10.41933929 -41.51013184 7.24694824 C-39.65550942 5.18020941 -39.65550942 5.18020941 -38.36334229 2.95782471 C-30.74061764 -7.98877235 -9.87439417 -5.22129707 0 0 Z M-168.75 99.25 C-170.24915434 100.93420967 -170.24915434 100.93420967 -169.75 103.125 C-169.15045529 104.98085115 -169.15045529 104.98085115 -168 106 C-165 106.16666667 -165 106.16666667 -162 106 C-160.73527935 104.94570314 -160.73527935 104.94570314 -160.75 102.5625 C-160.8325 101.716875 -160.915 100.87125 -161 100 C-164.11408827 97.92394116 -165.55901822 96.9707273 -168.75 99.25 Z " fill="#FDF764" transform="translate(202,23)"/>
<path d="M0 0 C2.9375 0.8125 2.9375 0.8125 4.9375 2.8125 C4.9375 3.8025 4.9375 4.7925 4.9375 5.8125 C7.89925123 5.19972388 9.31808783 4.55877478 11.9375 2.8125 C14.25220912 2.08379528 16.5880947 1.42010482 18.9375 0.8125 C19.845 0.544375 20.7525 0.27625 21.6875 0 C23.9375 -0.1875 23.9375 -0.1875 25.75 0.9375 C27.33532069 3.44063794 27.37451584 4.89906107 26.9375 7.8125 C25.5 9.4375 25.5 9.4375 23.9375 10.8125 C23.6075 11.8025 23.2775 12.7925 22.9375 13.8125 C23.9275 13.8125 24.9175 13.8125 25.9375 13.8125 C25.6075 17.4425 25.2775 21.0725 24.9375 24.8125 C22.9575 25.3075 22.9575 25.3075 20.9375 25.8125 C20.9375 26.4725 20.9375 27.1325 20.9375 27.8125 C21.62457031 27.78929687 22.31164062 27.76609375 23.01953125 27.7421875 C24.37111328 27.71511719 24.37111328 27.71511719 25.75 27.6875 C26.64332031 27.66429687 27.53664062 27.64109375 28.45703125 27.6171875 C30.9375 27.8125 30.9375 27.8125 33.9375 29.8125 C33.9375 30.8025 33.9375 31.7925 33.9375 32.8125 C32.14453125 34.390625 32.14453125 34.390625 29.75 36.0625 C24.30756632 40.11009612 20.69712495 44.54062512 17.9375 50.8125 C16.9475 50.8125 15.9575 50.8125 14.9375 50.8125 C14.9375 51.8025 14.9375 52.7925 14.9375 53.8125 C15.5975 53.8125 16.2575 53.8125 16.9375 53.8125 C16.77378906 54.62976563 16.61007813 55.44703125 16.44140625 56.2890625 C15.86775394 60.30018176 15.82748396 64.14498121 15.875 68.1875 C15.88176758 69.29158203 15.88176758 69.29158203 15.88867188 70.41796875 C15.90034858 72.21618158 15.91827989 74.01435197 15.9375 75.8125 C16.9275 75.8125 17.9175 75.8125 18.9375 75.8125 C19.26363281 76.47636719 19.58976563 77.14023438 19.92578125 77.82421875 C20.36277344 78.70722656 20.79976562 79.59023437 21.25 80.5 C21.89388672 81.80517578 21.89388672 81.80517578 22.55078125 83.13671875 C23.90675794 85.75318082 25.42130392 88.28550653 26.9375 90.8125 C22.9775 90.8125 19.0175 90.8125 14.9375 90.8125 C15.39125 92.235625 15.845 93.65875 16.3125 95.125 C16.56773437 95.92550781 16.82296875 96.72601563 17.0859375 97.55078125 C17.92581811 100.03974528 17.92581811 100.03974528 19.9375 102.8125 C20.27126789 105.61784027 20.37850953 108.39672867 20.49609375 111.21875 C20.99011963 114.12169855 21.66573283 115.01931844 23.9375 116.8125 C24.2675 116.1525 24.5975 115.4925 24.9375 114.8125 C24.9375 115.8025 24.9375 116.7925 24.9375 117.8125 C25.5975 117.4825 26.2575 117.1525 26.9375 116.8125 C27.40556645 114.47505706 27.76419794 112.11510921 28.0625 109.75 C28.31386719 107.81447266 28.31386719 107.81447266 28.5703125 105.83984375 C28.69148437 104.84082031 28.81265625 103.84179688 28.9375 102.8125 C29.5975 103.1425 30.2575 103.4725 30.9375 103.8125 C30.79673685 105.7712043 30.6497324 107.72946093 30.5 109.6875 C30.37818359 111.32332031 30.37818359 111.32332031 30.25390625 112.9921875 C29.9375 115.8125 29.9375 115.8125 28.9375 117.8125 C29.9275 117.8125 30.9175 117.8125 31.9375 117.8125 C32.2675 112.8625 32.5975 107.9125 32.9375 102.8125 C33.2675 102.8125 33.5975 102.8125 33.9375 102.8125 C33.9375 107.1025 33.9375 111.3925 33.9375 115.8125 C34.5975 115.8125 35.2575 115.8125 35.9375 115.8125 C37.15443876 113.37862247 37.25709896 111.39411154 37.5 108.6875 C37.58378906 107.77742188 37.66757813 106.86734375 37.75390625 105.9296875 C37.81449219 105.23101562 37.87507812 104.53234375 37.9375 103.8125 C44.76011231 106.67455971 48.39813947 110.06190598 52.875 115.875 C53.47981201 116.63506348 54.08462402 117.39512695 54.70776367 118.17822266 C55.91266819 119.69298731 57.11213575 121.21209544 58.30566406 122.73583984 C60.41482425 125.41993867 62.57779929 128.054183 64.75 130.6875 C66.14583333 132.39583333 67.54166667 134.10416667 68.9375 135.8125 C69.7315625 136.781875 70.525625 137.75125 71.34375 138.75 C72.1378125 139.719375 72.931875 140.68875 73.75 141.6875 C74.81154297 142.98300781 74.81154297 142.98300781 75.89453125 144.3046875 C76.56871094 145.13226563 77.24289063 145.95984375 77.9375 146.8125 C78.68386719 147.69035156 79.43023437 148.56820312 80.19921875 149.47265625 C81.9375 151.8125 81.9375 151.8125 81.9375 154.375 C80.7614412 157.24164332 79.25781952 158.79157654 76.9375 160.8125 C78.5875 162.7925 80.2375 164.7725 81.9375 166.8125 C82.494375 166.67972656 83.05125 166.54695312 83.625 166.41015625 C88.7233701 165.23029695 93.73537441 164.38000461 98.9375 163.8125 C98.51139641 168.62747062 96.67194129 170.41889722 93.0625 173.5 C92.17820313 174.26699219 91.29390625 175.03398437 90.3828125 175.82421875 C85.47777505 179.8125 85.47777505 179.8125 80.9375 179.8125 C80.56625 181.0190625 80.56625 181.0190625 80.1875 182.25 C79.775 183.095625 79.3625 183.94125 78.9375 184.8125 C76.859375 185.47265625 76.859375 185.47265625 74.9375 185.8125 C74.21304688 184.8740625 73.48859375 183.935625 72.7421875 182.96875 C71.76657745 181.74923743 70.78996182 180.53052885 69.8125 179.3125 C69.338125 178.69246094 68.86375 178.07242188 68.375 177.43359375 C66.97432412 175.71114098 65.6754515 174.1962838 63.9375 172.8125 C60.87226061 172.63011205 60.87226061 172.63011205 57.9375 172.8125 C55.69921875 171.01171875 55.69921875 171.01171875 53.625 168.5 C52.46677734 167.12328125 52.46677734 167.12328125 51.28515625 165.71875 C50.51042969 164.7596875 49.73570312 163.800625 48.9375 162.8125 C48.21433594 161.9359375 47.49117187 161.059375 46.74609375 160.15625 C45.26395412 158.35328945 43.78891437 156.54447349 42.3203125 154.73046875 C39.72993767 151.55832121 37.09051405 148.43220543 34.4375 145.3125 C30.99097109 141.25321491 27.56716821 137.1778783 24.1875 133.0625 C23.45402344 132.18464844 22.72054687 131.30679688 21.96484375 130.40234375 C19.9375 127.8125 19.9375 127.8125 18.31640625 125.12890625 C15.84692912 121.18143781 14.30549243 119.18137825 9.70703125 117.94140625 C4.57660455 117.58398102 0.64399175 117.64690519 -3.6875 120.60546875 C-5.96659457 122.90434713 -8.00776544 125.31284261 -10.0625 127.8125 C-11.24304774 128.90578986 -12.45140936 129.96992446 -13.6875 131 C-17.71031217 134.45157284 -21.57192147 138.06232528 -25.4375 141.6875 C-30.41792198 146.35572919 -35.43156269 150.9765125 -40.5234375 155.5234375 C-44.19265308 158.83137647 -47.81072384 162.19429702 -51.42236328 165.56494141 C-61.37959652 174.8125 -61.37959652 174.8125 -64.25 174.8125 C-66.23482786 173.71742256 -67.57875536 172.51880634 -69.0625 170.8125 C-72.18447478 172.1214572 -72.18447478 172.1214572 -74.0625 174.8125 C-73.340625 175.039375 -72.61875 175.26625 -71.875 175.5 C-68.47792913 177.08529974 -66.4875448 178.97173323 -64.0625 181.8125 C-64.0625 182.8025 -64.0625 183.7925 -64.0625 184.8125 C-72.68439135 185.65778347 -80.90618102 182.58337932 -88.0625 177.8125 C-88.3925 176.8225 -88.7225 175.8325 -89.0625 174.8125 C-91.07758358 174.07926204 -91.07758358 174.07926204 -93.0625 173.8125 C-93.87109375 171.64453125 -93.87109375 171.64453125 -94.0625 168.8125 C-91.97265625 166.13671875 -91.97265625 166.13671875 -89.125 163.5 C-88.18785156 162.61699219 -87.25070313 161.73398437 -86.28515625 160.82421875 C-85.55167969 160.16035156 -84.81820312 159.49648438 -84.0625 158.8125 C-84.5575 158.235 -85.0525 157.6575 -85.5625 157.0625 C-87.0625 154.8125 -87.0625 154.8125 -87.0625 150.8125 C-85.18359375 148.91015625 -85.18359375 148.91015625 -82.5 146.875 C-81.49582031 146.08996094 -80.49164063 145.30492187 -79.45703125 144.49609375 C-78.90869629 144.06796387 -78.36036133 143.63983398 -77.79541016 143.19873047 C-74.67884887 140.70565707 -71.69032039 138.06545191 -68.6875 135.4375 C-61.86893869 129.49468507 -54.98305444 123.63603569 -48.0625 117.8125 C-48.65675781 117.79791748 -49.25101562 117.78333496 -49.86328125 117.76831055 C-52.59695634 117.69311322 -55.32950417 117.59669478 -58.0625 117.5 C-58.99707031 117.47744141 -59.93164062 117.45488281 -60.89453125 117.43164062 C-69.05281465 117.11786049 -75.9813807 115.71476285 -82.0625 109.8125 C-84.1480699 106.73380158 -84.12865749 104.46319057 -84.0625 100.8125 C-85.60574951 100.8439209 -85.60574951 100.8439209 -87.18017578 100.87597656 C-91.01548213 100.94864994 -94.85072822 100.99439821 -98.68652344 101.03222656 C-100.34320325 101.05228009 -101.99981282 101.07953029 -103.65625 101.11425781 C-106.04444758 101.16305512 -108.43170547 101.18553064 -110.8203125 101.203125 C-111.92223434 101.23409271 -111.92223434 101.23409271 -113.04641724 101.26568604 C-118.21330924 101.26791523 -121.09777535 100.08456962 -125.0625 96.8125 C-129.60721044 90.14692468 -128.1912102 82.56978261 -127.16040039 74.95947266 C-127.06447098 74.22024567 -126.96854156 73.48101868 -126.8697052 72.71939087 C-126.55494042 70.30441662 -126.23276662 67.89050016 -125.91015625 65.4765625 C-125.68800171 63.78889461 -125.46620044 62.10118018 -125.24473572 60.41342163 C-124.78141472 56.89122154 -124.31453672 53.36951737 -123.8449707 49.84814453 C-123.24261094 45.3294756 -122.64813481 40.80981186 -122.05614567 36.28977394 C-121.59993368 32.81167385 -121.14014346 29.33405439 -120.67919731 25.85657883 C-120.45853068 24.18929362 -120.238858 22.52187657 -120.02018929 20.85432816 C-119.71501803 18.53211532 -119.40517256 16.21057459 -119.09399414 13.88916016 C-119.00408203 13.19826294 -118.91416992 12.50736572 -118.8215332 11.79553223 C-118.1768628 7.0412256 -118.1768628 7.0412256 -117.0625 4.8125 C-109.6719524 4.66534308 -102.41825165 5.10473008 -95.0625 5.8125 C-95.79600899 12.05605866 -97.26459485 18.03779775 -98.8125 24.125 C-99.07691895 25.17429688 -99.34133789 26.22359375 -99.61376953 27.3046875 C-101.95139685 36.51530286 -104.45507623 45.67497954 -107.0625 54.8125 C-105.7425 54.8125 -104.4225 54.8125 -103.0625 54.8125 C-103.0625 56.7925 -103.0625 58.7725 -103.0625 60.8125 C-101.84046875 60.78929687 -100.6184375 60.76609375 -99.359375 60.7421875 C-85.30703787 60.57281846 -71.34315558 61.11543179 -57.3125 61.8125 C-40.540923 62.64517687 -23.85801648 63.09724402 -7.0625 62.8125 C-7.0625 61.4925 -7.0625 60.1725 -7.0625 58.8125 C-4.4225 57.4925 -1.7825 56.1725 0.9375 54.8125 C-0.0525 52.3375 -0.0525 52.3375 -1.0625 49.8125 C-4.5275 50.3075 -4.5275 50.3075 -8.0625 50.8125 C-7.75 48.9375 -7.75 48.9375 -7.0625 46.8125 C-6.0725 46.1525 -5.0825 45.4925 -4.0625 44.8125 C-3.73528934 41.98270719 -3.73528934 41.98270719 -3.9375 38.8125 C-4.14770179 32.98290359 -4.14770179 32.98290359 -3.0625 30.8125 C-2.4025 30.8125 -1.7425 30.8125 -1.0625 30.8125 C-0.0725 36.2575 -0.0725 36.2575 0.9375 41.8125 C2.52525549 40.42169892 4.10750939 39.02461596 5.6875 37.625 C7.01007813 36.45904297 7.01007813 36.45904297 8.359375 35.26953125 C10.81636268 32.92794754 12.88612766 30.51091735 14.9375 27.8125 C12.6275 27.8125 10.3175 27.8125 7.9375 27.8125 C7.97875 26.575 8.02 25.3375 8.0625 24.0625 C8.07434999 20.69117692 7.573414 18.77759412 5.9375 15.8125 C5.89765091 14.14630979 5.89387066 12.47859551 5.9375 10.8125 C5.23882812 10.83570313 4.54015625 10.85890625 3.8203125 10.8828125 C2.91023437 10.90085938 2.00015625 10.91890625 1.0625 10.9375 C0.15757812 10.96070313 -0.74734375 10.98390625 -1.6796875 11.0078125 C-4.0625 10.8125 -4.0625 10.8125 -6.0625 8.8125 C-6.39552312 5.6820827 -6.53921956 3.63351702 -4.9375 0.875 C-3.0625 -0.1875 -3.0625 -0.1875 0 0 Z " fill="#7FBBCD" transform="translate(162.0625,138.1875)"/>
<path d="M0 0 C4.7778524 -0.04974824 9.55559079 -0.08538741 14.33364868 -0.1078186 C16.11847454 -0.11664022 17.9032892 -0.12815832 19.68807983 -0.14242554 C22.16715548 -0.16005807 24.64586978 -0.16419094 27.125 -0.1640625 C27.85203125 -0.17119263 28.5790625 -0.17832275 29.328125 -0.18566895 C36.16950266 -0.15484452 36.16950266 -0.15484452 38.83203125 2.06640625 C42.64315025 8.25743568 42.01788679 14.03951589 41.5390625 21.10546875 C41.47297287 22.26331879 41.40688324 23.42116882 41.33879089 24.61410522 C41.19595382 27.0604331 41.04500303 29.50629899 40.88647461 31.95166016 C40.64675468 35.65703849 40.43147536 39.36318634 40.22070312 43.0703125 C40.07826607 45.45711781 39.93442994 47.84384012 39.7890625 50.23046875 C39.6919976 51.86866074 39.6919976 51.86866074 39.5929718 53.53994751 C38.23650061 74.15269568 38.23650061 74.15269568 35.4490509 77.95083618 C30.88218658 81.80754455 27.6201285 82.19418093 21.8046875 82.19921875 C21.10113632 82.20017548 20.39758514 82.2011322 19.67271423 82.20211792 C18.17723502 82.20279945 16.68175286 82.20094703 15.1862793 82.19677734 C12.93466209 82.1915003 10.68325101 82.19668546 8.43164062 82.203125 C0.5204656 82.20641488 -7.30176672 81.99984663 -15.16796875 81.06640625 C-15.1421875 82.31292969 -15.11640625 83.55945313 -15.08984375 84.84375 C-15.09427003 90.49943201 -15.70680307 96.02389425 -16.41796875 101.62890625 C-16.52753906 102.61826172 -16.63710938 103.60761719 -16.75 104.62695312 C-17.69483157 112.12095929 -19.28193892 118.82572672 -25.16796875 123.94140625 C-29.12416787 126.74371396 -31.8030962 128.29861608 -36.68261719 128.40112305 C-37.57164734 128.42422043 -38.46067749 128.44731781 -39.37664795 128.47111511 C-40.33387756 128.48580338 -41.29110718 128.50049164 -42.27734375 128.515625 C-43.27695129 128.53736282 -44.27655884 128.55910065 -45.30645752 128.58149719 C-47.42801028 128.62542204 -49.54966537 128.66462003 -51.67138672 128.69946289 C-54.86463002 128.75301179 -58.05714914 128.82348089 -61.25 128.89648438 C-72.61696974 129.12921759 -83.83587804 129.04976086 -95.16796875 128.06640625 C-95.3282618 115.11272394 -94.45338388 102.31763712 -93.4140625 89.4140625 C-93.18522207 86.30110621 -93.00936812 83.18818457 -92.84448242 80.07128906 C-91.75498138 60.31562559 -91.75498138 60.31562559 -88.5390625 55.7578125 C-85.2628097 53.42071618 -83.03323454 53.63509957 -79.04296875 53.75390625 C-78.0518811 53.77710938 -78.0518811 53.77710938 -77.04077148 53.80078125 C-71.72456633 53.95579148 -66.43997171 54.37174233 -61.16796875 55.06640625 C-61.19117188 54.06867188 -61.214375 53.0709375 -61.23828125 52.04296875 C-61.38627574 42.44951055 -61.00369918 32.94746873 -60.29296875 23.37890625 C-60.21449707 22.26918457 -60.13602539 21.15946289 -60.05517578 20.01611328 C-58.94710684 6.02807212 -58.94710684 6.02807212 -55.67114258 2.41601562 C-51.85583303 0.35895611 -48.21083003 0.58588399 -43.9375 0.5546875 C-42.54640015 0.52755676 -42.54640015 0.52755676 -41.12719727 0.49987793 C-38.07832518 0.44467586 -35.02966405 0.41110488 -31.98046875 0.37890625 C-29.87262793 0.34739405 -27.76479898 0.31507804 -25.65698242 0.28198242 C-20.23139486 0.20231596 -14.80582923 0.14445377 -9.37988281 0.09570312 C-6.25321051 0.06718377 -3.12661648 0.03403937 0 0 Z " fill="#F7FAF6" transform="translate(341.16796875,110.93359375)"/>
<path d="M0 0 C0.78086975 -0.00014603 1.5617395 -0.00029205 2.36627197 -0.0004425 C4.94180093 0.00025297 7.51725715 0.00802827 10.09277344 0.01586914 C11.88067587 0.01773462 13.66857881 0.01915791 15.45648193 0.02015686 C20.15825821 0.02397182 24.86000352 0.03379341 29.56176758 0.04486084 C34.3611611 0.0550969 39.16055964 0.05965919 43.95996094 0.06469727 C53.37403703 0.07541658 62.78809016 0.09248076 72.20214844 0.11352539 C71.87835205 1.21277344 71.55455566 2.31202148 71.22094727 3.44458008 C67.48379512 16.9029847 72.55723817 28.89298488 79.06152344 40.50415039 C81.43912636 44.60540716 84.10718826 48.46689319 86.95214844 52.25805664 C88.20214844 54.11352539 88.20214844 54.11352539 88.20214844 56.11352539 C60.15214844 56.11352539 32.10214844 56.11352539 3.20214844 56.11352539 C3.20214844 58.09352539 3.20214844 60.07352539 3.20214844 62.11352539 C0.56214844 62.11352539 -2.07785156 62.11352539 -4.79785156 62.11352539 C-4.91902344 62.77739258 -5.04019531 63.44125977 -5.16503906 64.12524414 C-5.33261719 65.00825195 -5.50019531 65.89125977 -5.67285156 66.80102539 C-5.83527344 67.67114258 -5.99769531 68.54125977 -6.16503906 69.43774414 C-6.79785156 72.11352539 -6.79785156 72.11352539 -8.79785156 77.11352539 C-18.03785156 77.11352539 -27.27785156 77.11352539 -36.79785156 77.11352539 C-36.21428772 69.52719541 -35.63599972 62.01937872 -34.71191406 54.48071289 C-34.60946381 53.63735382 -34.50701355 52.79399475 -34.40145874 51.92507935 C-34.18627179 50.16559043 -33.96943991 48.40630191 -33.75097656 46.6472168 C-33.42268187 43.98715043 -33.10626943 41.32583066 -32.79003906 38.66430664 C-29.5761519 12.25747806 -29.5761519 12.25747806 -20.79785156 5.11352539 C-13.98033113 1.15867374 -7.81256621 -0.03828428 0 0 Z " fill="#8C72CB" transform="translate(85.7978515625,32.886474609375)"/>
<path d="M0 0 C7.3905476 -0.14715692 14.64424835 0.29223008 22 1 C21.26649101 7.24355866 19.79790515 13.22529775 18.25 19.3125 C17.98558105 20.36179688 17.72116211 21.41109375 17.44873047 22.4921875 C15.11110315 31.70280286 12.60742377 40.86247954 10 50 C11.32 50 12.64 50 14 50 C14 51.98 14 53.96 14 56 C15.22203125 55.97679687 16.4440625 55.95359375 17.703125 55.9296875 C34.59893705 55.72443656 51.41659007 56.53786737 68.28701782 57.35159302 C69.68988541 57.41925369 69.68988541 57.41925369 71.12109375 57.48828125 C72.048685 57.53314667 72.97627625 57.57801208 73.93197632 57.62423706 C86.28341751 58.21484368 98.6405334 58.61754094 111 59 C111 62.3 111 65.6 111 69 C110.34 69 109.68 69 109 69 C109 69.66 109 70.32 109 71 C109.56332031 71.12503906 110.12664062 71.25007813 110.70703125 71.37890625 C113.15225595 72.04124139 115.36768569 72.92138299 117.6875 73.9375 C118.47511719 74.27652344 119.26273438 74.61554688 120.07421875 74.96484375 C122 76 122 76 123 78 C122.34 78.99 121.68 79.98 121 81 C118.453125 81.08984375 118.453125 81.08984375 115.25 80.9375 C106.35829181 81.42659286 101.89102884 86.40354 95.79248047 92.29638672 C92.83668118 95.10564407 89.72927137 97.73239597 86.625 100.375 C85.8052771 101.08716675 85.8052771 101.08716675 84.96899414 101.8137207 C83.88955818 102.74619044 82.79980508 103.66684705 81.70019531 104.57543945 C80.51300957 105.57015927 79.35784869 106.60380996 78.22949219 107.66479492 C72.46221785 112.69517281 67.45303919 112.82538566 60 112.5625 C58.9584375 112.56056641 57.916875 112.55863281 56.84375 112.55664062 C48.40715204 112.41283498 41.28556976 111.10070006 35 105 C32.9144301 101.92130158 32.93384251 99.65069057 33 96 C31.45675049 96.0314209 31.45675049 96.0314209 29.88232422 96.06347656 C26.04701787 96.13614994 22.21177178 96.18189821 18.37597656 96.21972656 C16.71929675 96.23978009 15.06268718 96.26703029 13.40625 96.30175781 C11.01805242 96.35055512 8.63079453 96.37303064 6.2421875 96.390625 C5.14026566 96.42159271 5.14026566 96.42159271 4.01608276 96.45318604 C-1.15080924 96.45541523 -4.03527535 95.27206962 -8 92 C-12.54471044 85.33442468 -11.1287102 77.75728261 -10.09790039 70.14697266 C-10.00197098 69.40774567 -9.90604156 68.66851868 -9.8072052 67.90689087 C-9.49244042 65.49191662 -9.17026662 63.07800016 -8.84765625 60.6640625 C-8.62550171 58.97639461 -8.40370044 57.28868018 -8.18223572 55.60092163 C-7.71891472 52.07872154 -7.25203672 48.55701737 -6.7824707 45.03564453 C-6.18011094 40.5169756 -5.58563481 35.99731186 -4.99364567 31.47727394 C-4.53743368 27.99917385 -4.07764346 24.52155439 -3.61669731 21.04407883 C-3.39603068 19.37679362 -3.176358 17.70937657 -2.95768929 16.04182816 C-2.65251803 13.71961532 -2.34267256 11.39807459 -2.03149414 9.07666016 C-1.94158203 8.38576294 -1.85166992 7.69486572 -1.7590332 6.98303223 C-1.1143628 2.2287256 -1.1143628 2.2287256 0 0 Z " fill="#CBB1F2" transform="translate(45,143)"/>
<path d="M0 0 C27.72 0 55.44 0 84 0 C83.35210273 9.07056179 82.63927491 18.04520037 81.5625 27.0625 C81.44068359 28.14982422 81.31886719 29.23714844 81.19335938 30.35742188 C81.06896484 31.40607422 80.94457031 32.45472656 80.81640625 33.53515625 C80.70756104 34.467229 80.59871582 35.39930176 80.48657227 36.35961914 C79.98010933 39.10793659 79.12233918 41.4472342 78 44 C77.42006287 44.00586624 76.84012573 44.01173248 76.24261475 44.01777649 C70.20780788 44.08169921 64.17353485 44.16611584 58.13916016 44.26245117 C55.8869531 44.29571024 53.63466249 44.32373908 51.38232422 44.34643555 C48.14514554 44.37996296 44.9087332 44.43227888 41.671875 44.48828125 C40.66445251 44.49467117 39.65703003 44.5010611 38.61907959 44.50764465 C37.67840637 44.52743881 36.73773315 44.54723297 35.76855469 44.56762695 C34.52945343 44.58428154 34.52945343 44.58428154 33.26531982 44.60127258 C30.45419195 45.09606972 29.06441871 46.05265669 27 48 C26.19268676 50.83570748 26.19268676 50.83570748 26 54 C25.90195068 55.01239746 25.80390137 56.02479492 25.70288086 57.06787109 C25.62432861 58.12570801 25.54577637 59.18354492 25.46484375 60.2734375 C25.34677368 61.83457275 25.34677368 61.83457275 25.22631836 63.42724609 C25.1310083 64.73000488 25.03569824 66.03276367 24.9375 67.375 C24.628125 71.54125 24.31875 75.7075 24 80 C14.43 80 4.86 80 -5 80 C-4.3774796 53.23162259 -2.13294827 26.69625579 0 0 Z " fill="#AFDBFC" transform="translate(257,68)"/>
<path d="M0 0 C15.37746855 -0.07018178 30.7549297 -0.12303302 46.13252258 -0.15543652 C53.27313603 -0.17088411 60.41364978 -0.1919331 67.55419922 -0.22631836 C73.78025698 -0.25628552 80.0062425 -0.27559032 86.23237038 -0.28226548 C89.52696462 -0.28616543 92.82130493 -0.29687667 96.11584473 -0.31719017 C99.80001014 -0.33900043 103.48374905 -0.34196533 107.16796875 -0.34057617 C108.25194443 -0.351362 109.3359201 -0.36214783 110.45274353 -0.3732605 C116.67939338 -0.34789339 121.35881956 0.29106613 127 3 C131.11825585 7.32944846 132.15222483 9.99110098 132.1875 15.875 C132.20167969 16.92429687 132.21585938 17.97359375 132.23046875 19.0546875 C131.91749307 24.41240672 130.88230517 29.706169 130 35 C86.11 35 42.22 35 -3 35 C0 25 0 25 1 22 C1.09126911 20.63905708 1.13065452 19.27415442 1.1328125 17.91015625 C1.13410156 17.12576172 1.13539063 16.34136719 1.13671875 15.53320312 C1.13285156 14.71787109 1.12898437 13.90253906 1.125 13.0625 C1.12886719 12.25103516 1.13273438 11.43957031 1.13671875 10.60351562 C1.13542969 9.81783203 1.13414062 9.03214844 1.1328125 8.22265625 C1.13112061 7.15156616 1.13112061 7.15156616 1.12939453 6.05883789 C0.99559495 3.92990982 0.54103286 2.05818379 0 0 Z " fill="#8C72CB" transform="translate(211,33)"/>
<path d="M0 0 C1.87751953 0.03673828 1.87751953 0.03673828 3.79296875 0.07421875 C8.15480011 0.2800382 12.47993816 0.78115397 16.8125 1.3125 C16.82651855 2.14442871 16.82651855 2.14442871 16.84082031 2.99316406 C16.89465722 5.51716481 16.97827254 8.03933814 17.0625 10.5625 C17.07667969 11.43519531 17.09085937 12.30789062 17.10546875 13.20703125 C17.25753855 18.40681288 17.25753855 18.40681288 19.734375 22.859375 C23.03132857 25.16476359 25.04336949 25.47522575 29.0390625 25.62890625 C30.0703125 25.67080078 31.1015625 25.71269531 32.1640625 25.75585938 C33.24429688 25.79517578 34.32453125 25.83449219 35.4375 25.875 C36.52546875 25.91818359 37.6134375 25.96136719 38.734375 26.00585938 C41.4269517 26.1121453 44.11962253 26.21418057 46.8125 26.3125 C48.26231057 33.23483498 47.50816781 39.93384964 46.9375 46.9375 C46.80021484 48.72994141 46.80021484 48.72994141 46.66015625 50.55859375 C46.3843716 54.14379418 46.09858733 57.72810886 45.8125 61.3125 C45.62153272 63.77857915 45.43138215 66.24472172 45.2421875 68.7109375 C45.15952637 69.78778809 45.07686523 70.86463867 44.99169922 71.97412109 C44.90299561 73.13161865 44.90299561 73.13161865 44.8125 74.3125 C38.69698506 74.48233263 32.58131461 74.64261238 26.46533203 74.79467773 C24.39202415 74.8474978 22.31877694 74.90276602 20.24560547 74.96069336 C8.02987287 75.30018327 -4.0045105 75.37929026 -16.1875 74.3125 C-16.34779305 61.35881769 -15.47291513 48.56373087 -14.43359375 35.66015625 C-14.20475332 32.54719996 -14.02889937 29.43427832 -13.86401367 26.31738281 C-12.77483615 6.56758574 -12.77483615 6.56758574 -9.5625 2.00390625 C-6.27077666 -0.34036383 -4.0056036 -0.11841234 0 0 Z " fill="#A6D44E" transform="translate(262.1875,164.6875)"/>
<path d="M0 0 C6.14729286 0.64291788 12.25644768 0.62257571 18.43196678 0.59381485 C21.96242461 0.58226409 25.49276849 0.60300318 29.02319336 0.6184082 C33.48689611 0.63669673 37.94990081 0.64523887 42.41357422 0.61645508 C46.05014106 0.5938598 49.68521986 0.60539701 53.32168007 0.63946152 C54.6974781 0.64619834 56.07339748 0.64063986 57.44908714 0.62210464 C68.16008887 0.4869126 68.16008887 0.4869126 72.09751892 3.06007385 C73.83819429 4.79184422 75.28514912 6.54179013 76.73608398 8.5168457 C78.1153724 9.76454954 79.50753965 10.99851826 80.92358398 12.2043457 C83.63968089 14.54599042 86.25014646 16.92732745 88.73608398 19.5168457 C87.35763832 22.75852752 85.91334907 24.43300385 83.07592773 26.49731445 C82.36500977 27.02131836 81.6540918 27.54532227 80.92163086 28.08520508 C79.80884766 28.88667969 79.80884766 28.88667969 78.67358398 29.7043457 C77.20322288 30.78074662 75.73315508 31.85754836 74.26342773 32.93481445 C73.28490845 33.64287231 73.28490845 33.64287231 72.28662109 34.36523438 C70.77448256 35.42976386 70.77448256 35.42976386 69.73608398 36.5168457 C67.79421144 36.61817409 65.84856616 36.6476756 63.90405273 36.6496582 C62.64729736 36.6515918 61.39054199 36.65352539 60.09570312 36.65551758 C58.7049954 36.6513903 57.31428893 36.64682103 55.92358398 36.6418457 C55.22345184 36.64095947 54.5233197 36.64007324 53.80197144 36.63916016 C40.43064689 36.61949394 27.07155527 36.29575733 13.70751953 35.87280273 C12.97978333 35.84986145 12.25204712 35.82692017 11.5022583 35.80328369 C10.09944469 35.75885612 8.69665227 35.71375305 7.29388428 35.66790771 C3.70081816 35.55570417 0.11948369 35.50916587 -3.47485352 35.5559082 C-10.06836679 35.48793384 -15.97095413 34.18645259 -20.82641602 29.5168457 C-25.23857505 24.08649613 -24.89786235 18.25810601 -24.26391602 11.5168457 C-21.97760913 6.59249242 -19.06063681 4.00403426 -14.26391602 1.5168457 C-9.37148403 -0.04907111 -5.09590105 -0.63277671 0 0 Z M-10.01391602 13.7668457 C-11.51307035 15.45105538 -11.51307035 15.45105538 -11.01391602 17.6418457 C-10.4143713 19.49769685 -10.4143713 19.49769685 -9.26391602 20.5168457 C-6.26391602 20.68351237 -6.26391602 20.68351237 -3.26391602 20.5168457 C-1.99919536 19.46254885 -1.99919536 19.46254885 -2.01391602 17.0793457 C-2.09641602 16.2337207 -2.17891602 15.3880957 -2.26391602 14.5168457 C-5.37800428 12.44078686 -6.82293423 11.487573 -10.01391602 13.7668457 Z " fill="#A2D249" transform="translate(43.263916015625,108.483154296875)"/>
<path d="M0 0 C5.52176131 3.6994885 9.08450732 7.51102668 11 14 C11.44496829 16.88849366 11.52511212 19.70540177 11.5 22.625 C11.49355469 23.41624268 11.48710937 24.20748535 11.48046875 25.02270508 C11.25228344 32.43497449 9.31987484 38.36836737 6 45 C5.44183594 46.16660156 4.88367188 47.33320312 4.30859375 48.53515625 C0.69099345 55.84193505 -3.59807724 62.6221261 -8.25 69.3125 C-8.75732666 70.04823242 -9.26465332 70.78396484 -9.78735352 71.54199219 C-10.27518311 72.22551758 -10.7630127 72.90904297 -11.265625 73.61328125 C-11.69649414 74.21954346 -12.12736328 74.82580566 -12.57128906 75.45043945 C-14.2115996 77.22949807 -15.79222748 78.04846537 -18 79 C-23.90434595 71.72406926 -29.29794672 64.231825 -34.3125 56.3125 C-34.80331055 55.54188232 -35.29412109 54.77126465 -35.79980469 53.97729492 C-43.47137322 41.70304567 -49.80725817 29.17070791 -46.3828125 14.32421875 C-43.80846178 6.8175943 -39.4690157 2.34588519 -32.4921875 -1.31640625 C-21.73912935 -5.81513466 -10.32452931 -5.45931565 0 0 Z " fill="#FD5C4F" transform="translate(202,23)"/>
<path d="M0 0 C13.92506983 -0.35115454 27.84944919 -0.6142679 41.7780447 -0.77718258 C48.24641653 -0.85538843 54.71180969 -0.9613924 61.1784668 -1.1315918 C67.42275641 -1.294905 73.66418742 -1.38432345 79.91044807 -1.42315865 C82.28984668 -1.45082046 84.66909299 -1.50484699 87.04726982 -1.58595085 C105.25165284 -2.1819376 105.25165284 -2.1819376 109.86345291 1.47941208 C113.31126196 5.53956897 115.09634554 10.07807191 117 15 C117.9748321 16.35184325 118.96579205 17.69302193 120 19 C120 19.66 120 20.32 120 21 C91.95 21 63.9 21 35 21 C35 22.98 35 24.96 35 27 C32.36 27 29.72 27 27 27 C26.87882812 27.66386719 26.75765625 28.32773438 26.6328125 29.01171875 C26.46523437 29.89472656 26.29765625 30.77773437 26.125 31.6875 C25.96257812 32.55761719 25.80015625 33.42773438 25.6328125 34.32421875 C25 37 25 37 23 42 C13.76 42 4.52 42 -5 42 C-3.875 27.375 -3.875 27.375 -3.02734375 21.38671875 C-2.85009766 20.12021484 -2.67285156 18.85371094 -2.49023438 17.54882812 C-2.21663086 15.6374707 -2.21663086 15.6374707 -1.9375 13.6875 C-1.74897828 12.34966156 -1.56082548 11.01177107 -1.37304688 9.67382812 C-0.91896625 6.4486914 -0.46122971 3.2241207 0 0 Z " fill="#CBB1F2" transform="translate(54,68)"/>
<path d="M0 0 C5.36757261 0.46272178 9.30500109 1.13719579 14 4 C14.495 4.99 14.495 4.99 15 6 C14.34 6.99 13.68 7.98 13 9 C10.453125 9.08984375 10.453125 9.08984375 7.25 8.9375 C-1.64170819 9.42659286 -6.10897116 14.40354 -12.20751953 20.29638672 C-15.16331882 23.10564407 -18.27072863 25.73239597 -21.375 28.375 C-21.92148193 28.84977783 -22.46796387 29.32455566 -23.03100586 29.8137207 C-24.11044182 30.74619044 -25.20019492 31.66684705 -26.29980469 32.57543945 C-27.48699043 33.57015927 -28.64215131 34.60380996 -29.77050781 35.66479492 C-35.53778215 40.69517281 -40.54696081 40.82538566 -48 40.5625 C-49.0415625 40.56056641 -50.083125 40.55863281 -51.15625 40.55664062 C-59.59284796 40.41283498 -66.71443024 39.10070006 -73 33 C-76.21143379 28.02887646 -74.98599283 22.56538174 -74 17 C-72.26931515 11.52114625 -68.71305275 8.73386167 -63.90234375 5.9453125 C-60.24295528 4.12688948 -57.36466852 3.87773391 -53.33520508 3.88647461 C-52.17422806 3.88655014 -51.01325104 3.88662567 -49.8170929 3.88670349 C-47.93729988 3.89444542 -47.93729988 3.89444542 -46.01953125 3.90234375 C-44.73640549 3.9037587 -43.45327972 3.90517365 -42.13127136 3.90663147 C-38.72329759 3.91044595 -35.31536657 3.92026709 -31.90740967 3.93133545 C-28.42851337 3.94157257 -24.94961015 3.94613402 -21.47070312 3.95117188 C-14.64711788 3.96189033 -7.82356099 3.97895391 -1 4 C-0.67 2.68 -0.34 1.36 0 0 Z " fill="#FE72DB" transform="translate(153,215)"/>
<path d="M0 0 C2.9375 0.8125 2.9375 0.8125 4.9375 2.8125 C4.9375 3.8025 4.9375 4.7925 4.9375 5.8125 C7.89925123 5.19972388 9.31808783 4.55877478 11.9375 2.8125 C14.25220912 2.08379528 16.5880947 1.42010482 18.9375 0.8125 C19.845 0.544375 20.7525 0.27625 21.6875 0 C23.9375 -0.1875 23.9375 -0.1875 25.75 0.9375 C27.33532069 3.44063794 27.37451584 4.89906107 26.9375 7.8125 C25.5 9.4375 25.5 9.4375 23.9375 10.8125 C23.6075 11.8025 23.2775 12.7925 22.9375 13.8125 C23.9275 13.8125 24.9175 13.8125 25.9375 13.8125 C25.6075 17.4425 25.2775 21.0725 24.9375 24.8125 C23.6175 25.1425 22.2975 25.4725 20.9375 25.8125 C20.9375 26.4725 20.9375 27.1325 20.9375 27.8125 C21.62457031 27.78929687 22.31164062 27.76609375 23.01953125 27.7421875 C24.37111328 27.71511719 24.37111328 27.71511719 25.75 27.6875 C26.64332031 27.66429687 27.53664062 27.64109375 28.45703125 27.6171875 C30.9375 27.8125 30.9375 27.8125 33.9375 29.8125 C33.9375 30.8025 33.9375 31.7925 33.9375 32.8125 C32.14453125 34.390625 32.14453125 34.390625 29.75 36.0625 C24.30756632 40.11009612 20.69712495 44.54062512 17.9375 50.8125 C16.9475 50.8125 15.9575 50.8125 14.9375 50.8125 C14.9375 51.8025 14.9375 52.7925 14.9375 53.8125 C15.5975 53.8125 16.2575 53.8125 16.9375 53.8125 C16.69193359 55.03839844 16.69193359 55.03839844 16.44140625 56.2890625 C15.86775394 60.30018176 15.82748396 64.14498121 15.875 68.1875 C15.87951172 68.92355469 15.88402344 69.65960938 15.88867188 70.41796875 C15.90034858 72.21618158 15.91827989 74.01435197 15.9375 75.8125 C16.9275 75.8125 17.9175 75.8125 18.9375 75.8125 C19.42669922 76.80830078 19.42669922 76.80830078 19.92578125 77.82421875 C20.36277344 78.70722656 20.79976562 79.59023437 21.25 80.5 C21.67925781 81.37011719 22.10851562 82.24023438 22.55078125 83.13671875 C23.90675794 85.75318082 25.42130392 88.28550653 26.9375 90.8125 C22.9775 90.8125 19.0175 90.8125 14.9375 90.8125 C14.2775 85.5325 13.6175 80.2525 12.9375 74.8125 C11.6175 76.1325 10.2975 77.4525 8.9375 78.8125 C3.48445832 77.09048684 -1.7659812 74.95973735 -7.0625 72.8125 C-7.0625 68.1925 -7.0625 63.5725 -7.0625 58.8125 C-4.4225 57.4925 -1.7825 56.1725 0.9375 54.8125 C0.2775 53.1625 -0.3825 51.5125 -1.0625 49.8125 C-4.5275 50.3075 -4.5275 50.3075 -8.0625 50.8125 C-7.75 48.9375 -7.75 48.9375 -7.0625 46.8125 C-6.0725 46.1525 -5.0825 45.4925 -4.0625 44.8125 C-3.73528934 41.98270719 -3.73528934 41.98270719 -3.9375 38.8125 C-4.14770179 32.98290359 -4.14770179 32.98290359 -3.0625 30.8125 C-2.4025 30.8125 -1.7425 30.8125 -1.0625 30.8125 C-0.0725 36.2575 -0.0725 36.2575 0.9375 41.8125 C2.52525549 40.42169892 4.10750939 39.02461596 5.6875 37.625 C6.56921875 36.84769531 7.4509375 36.07039063 8.359375 35.26953125 C10.81636268 32.92794754 12.88612766 30.51091735 14.9375 27.8125 C12.6275 27.8125 10.3175 27.8125 7.9375 27.8125 C7.97875 26.575 8.02 25.3375 8.0625 24.0625 C8.07434999 20.69117692 7.573414 18.77759412 5.9375 15.8125 C5.89765091 14.14630979 5.89387066 12.47859551 5.9375 10.8125 C5.23882812 10.83570313 4.54015625 10.85890625 3.8203125 10.8828125 C2.91023437 10.90085938 2.00015625 10.91890625 1.0625 10.9375 C-0.29488281 10.97230469 -0.29488281 10.97230469 -1.6796875 11.0078125 C-4.0625 10.8125 -4.0625 10.8125 -6.0625 8.8125 C-6.39552312 5.6820827 -6.53921956 3.63351702 -4.9375 0.875 C-3.0625 -0.1875 -3.0625 -0.1875 0 0 Z " fill="#FB5C50" transform="translate(162.0625,138.1875)"/>
<path d="M0 0 C4.70927579 2.77996355 8.2473253 6.10011934 10.72265625 11.05078125 C11.27978757 17.0078007 11.24445811 22.00286524 7.72265625 27.05078125 C2.88689163 31.67629524 -0.98770923 34.07619805 -7.65234375 34.42578125 C-12.59655573 34.30238162 -15.28374961 32.94809464 -19.27734375 30.05078125 C-24.5103172 24.26696849 -24.68807691 20.23834348 -24.6171875 12.55078125 C-24.22687807 8.53104277 -23.50483175 6.29019535 -20.81640625 3.31640625 C-15.03669109 -1.43645597 -6.96995622 -2.9051447 0 0 Z " fill="#09DBB8" transform="translate(317.27734375,119.94921875)"/>
<path d="M0 0 C0.66 0.33 1.32 0.66 2 1 C0.21674227 5.22253254 -2.5251973 7.29973839 -6.02734375 10.12109375 C-8.47009798 12.2809184 -8.47009798 12.2809184 -11 17 C-4.07 17.495 -4.07 17.495 3 18 C3 18.99 3 19.98 3 21 C-2.28 21.33 -7.56 21.66 -13 22 C-13.33 24.31 -13.66 26.62 -14 29 C-8.39 29 -2.78 29 3 29 C3 29.99 3 30.98 3 32 C-0.60993172 33.13480527 -3.9842327 33.10015767 -7.75 33.0625 C-8.92046875 33.05347656 -10.0909375 33.04445312 -11.296875 33.03515625 C-12.18890625 33.02355469 -13.0809375 33.01195312 -14 33 C-14 34.65 -14 36.3 -14 38 C-13.443125 37.7834375 -12.88625 37.566875 -12.3125 37.34375 C-6.94811407 35.38647405 -2.70147617 34.68901039 3 35 C3 35.99 3 36.98 3 38 C1.77023438 38.19916016 1.77023438 38.19916016 0.515625 38.40234375 C-0.56203125 38.57894531 -1.6396875 38.75554687 -2.75 38.9375 C-3.81734375 39.11152344 -4.8846875 39.28554687 -5.984375 39.46484375 C-8.36347593 39.88704171 -10.66915211 40.37202884 -13 41 C-8.87643034 50.52623587 -8.87643034 50.52623587 -2 58 C-0.989375 58.33 0.02125 58.66 1.0625 59 C5.79284909 60.6103316 7.35035262 63.90231994 9.8125 68.0625 C11.02474046 71.06120008 11.2337728 72.08380976 10 75 C6.125 74.125 6.125 74.125 5 73 C4.95101562 73.61488281 4.90203125 74.22976562 4.8515625 74.86328125 C4.77679688 75.67152344 4.70203125 76.47976562 4.625 77.3125 C4.55539063 78.11300781 4.48578125 78.91351563 4.4140625 79.73828125 C4 82 4 82 2 85 C0.515 84.505 0.515 84.505 -1 84 C-1 83.01 -1 82.02 -1 81 C-1.33 82.65 -1.66 84.3 -2 86 C-2.99 86 -3.98 86 -5 86 C-4.67 81.38 -4.34 76.76 -4 72 C-4.66 76.29 -5.32 80.58 -6 85 C-10 85 -10 85 -13 84 C-14.24611911 81.50776178 -14.17821812 79.5940533 -14.3125 76.8125 C-14.60909663 73.030893 -15.04142073 70.34876377 -17.0625 67.125 C-19 64 -19 64 -19 59 C-13.555 58.505 -13.555 58.505 -8 58 C-8.94875 56.618125 -9.8975 55.23625 -10.875 53.8125 C-13.05653045 50.63505348 -14.6744419 47.62276315 -16 44 C-17.485 44.495 -17.485 44.495 -19 45 C-19.05429278 42.29139335 -19.09381211 39.58389099 -19.125 36.875 C-19.14175781 36.11445313 -19.15851563 35.35390625 -19.17578125 34.5703125 C-19.21546246 29.96729269 -18.75907577 26.33535996 -17 22 C-17.66 22 -18.32 22 -19 22 C-19 21.01 -19 20.02 -19 19 C-18.01 18.67 -17.02 18.34 -16 18 C-14.86038097 16.17088339 -14.86038097 16.17088339 -13.875 13.9375 C-10.81837641 8.09532954 -5.95694957 2.97847478 0 0 Z " fill="#F5ACC7" transform="translate(196,170)"/>
<path d="M0 0 C7.59 0 15.18 0 23 0 C22.47754408 9.090733 21.57999794 18.08513767 20.5 27.125 C20.36940186 28.2277124 20.23880371 29.3304248 20.10424805 30.46655273 C19.97703369 31.51141846 19.84981934 32.55628418 19.71875 33.6328125 C19.60466797 34.57012207 19.49058594 35.50743164 19.37304688 36.47314453 C19 39 19 39 18 43 C11.07 43 4.14 43 -3 43 C-3.19595617 33.68391702 -2.4240465 24.56640193 -1.5 15.3125 C-1.3549873 13.82101027 -1.21045273 12.32947398 -1.06640625 10.83789062 C-0.71731379 7.22458304 -0.35846989 3.61243767 0 0 Z " fill="#CBB1F4" transform="translate(318,68)"/>
<path d="M0 0 C2.9375 0.8125 2.9375 0.8125 4.9375 2.8125 C4.9375 3.8025 4.9375 4.7925 4.9375 5.8125 C7.89925123 5.19972388 9.31808783 4.55877478 11.9375 2.8125 C14.25220912 2.08379528 16.5880947 1.42010482 18.9375 0.8125 C19.845 0.544375 20.7525 0.27625 21.6875 0 C23.9375 -0.1875 23.9375 -0.1875 25.75 0.9375 C27.33532069 3.44063794 27.37451584 4.89906107 26.9375 7.8125 C25.5 9.4375 25.5 9.4375 23.9375 10.8125 C23.6075 11.8025 23.2775 12.7925 22.9375 13.8125 C23.9275 13.8125 24.9175 13.8125 25.9375 13.8125 C25.6075 17.4425 25.2775 21.0725 24.9375 24.8125 C22.6275 25.4725 20.3175 26.1325 17.9375 26.8125 C17.9375 28.1325 17.9375 29.4525 17.9375 30.8125 C16.27055497 33.01368486 14.6373274 34.94599407 12.75 36.9375 C12.26724609 37.47503906 11.78449219 38.01257813 11.28710938 38.56640625 C8.41634552 41.65681244 6.00018075 43.6092929 1.9375 44.8125 C3.4225 48.2775 3.4225 48.2775 4.9375 51.8125 C9.3925 51.3175 9.3925 51.3175 13.9375 50.8125 C13.9375 52.1325 13.9375 53.4525 13.9375 54.8125 C12.6175 55.4725 11.2975 56.1325 9.9375 56.8125 C11.2575 57.4725 12.5775 58.1325 13.9375 58.8125 C13.9375 60.1325 13.9375 61.4525 13.9375 62.8125 C10.9655615 61.68798273 8.60309313 60.58956209 5.9375 58.8125 C1.48059079 59.10316799 -1.34313285 60.43623765 -5.0625 62.8125 C-5.7225 62.8125 -6.3825 62.8125 -7.0625 62.8125 C-7.0625 61.4925 -7.0625 60.1725 -7.0625 58.8125 C-4.4225 57.4925 -1.7825 56.1725 0.9375 54.8125 C0.2775 53.1625 -0.3825 51.5125 -1.0625 49.8125 C-4.5275 50.3075 -4.5275 50.3075 -8.0625 50.8125 C-7.75 48.9375 -7.75 48.9375 -7.0625 46.8125 C-6.0725 46.1525 -5.0825 45.4925 -4.0625 44.8125 C-3.73528934 41.98270719 -3.73528934 41.98270719 -3.9375 38.8125 C-4.14770179 32.98290359 -4.14770179 32.98290359 -3.0625 30.8125 C-2.4025 30.8125 -1.7425 30.8125 -1.0625 30.8125 C-0.0725 36.2575 -0.0725 36.2575 0.9375 41.8125 C2.52525549 40.42169892 4.10750939 39.02461596 5.6875 37.625 C6.56921875 36.84769531 7.4509375 36.07039063 8.359375 35.26953125 C10.81636268 32.92794754 12.88612766 30.51091735 14.9375 27.8125 C12.6275 27.8125 10.3175 27.8125 7.9375 27.8125 C7.97875 26.575 8.02 25.3375 8.0625 24.0625 C8.07434999 20.69117692 7.573414 18.77759412 5.9375 15.8125 C5.89765091 14.14630979 5.89387066 12.47859551 5.9375 10.8125 C5.23882812 10.83570313 4.54015625 10.85890625 3.8203125 10.8828125 C2.91023437 10.90085938 2.00015625 10.91890625 1.0625 10.9375 C-0.29488281 10.97230469 -0.29488281 10.97230469 -1.6796875 11.0078125 C-4.0625 10.8125 -4.0625 10.8125 -6.0625 8.8125 C-6.39552312 5.6820827 -6.53921956 3.63351702 -4.9375 0.875 C-3.0625 -0.1875 -3.0625 -0.1875 0 0 Z " fill="#8DB3C2" transform="translate(162.0625,138.1875)"/>
<path d="M0 0 C0 4.29 0 8.58 0 13 C1.0725 12.38125 2.145 11.7625 3.25 11.125 C5.79386216 9.65738722 8.36961983 8.30562506 11 7 C12.50788584 27.95059166 12.50788584 27.95059166 9.03125 32.67578125 C7.39769058 33.75878979 5.74374308 34.81171072 4.0703125 35.83203125 C-0.02508242 40.12060517 0.89348838 46.69815906 0.90234375 52.34375 C0.93457031 53.5503125 0.96679688 54.756875 1 56 C-2.18695999 56.34978829 -3.55217121 56.34694429 -6.1328125 54.34765625 C-10.636347 49.18183727 -13.47526187 44.71837737 -15 38 C-9.47239641 35.89424625 -4.93002267 34.62148791 1 35 C1 34.01 1 33.02 1 32 C-1.08368538 32.31014392 -3.16693668 32.6232052 -5.25 32.9375 C-6.41015625 33.11152344 -7.5703125 33.28554687 -8.765625 33.46484375 C-11.23106961 33.8727736 -13.59424562 34.33901303 -16 35 C-16 33.35 -16 31.7 -16 30 C-7.585 29.505 -7.585 29.505 1 29 C1 28.01 1 27.02 1 26 C-4.61 26 -10.22 26 -16 26 C-16 19 -16 19 -15 18 C-12.30345146 17.92680379 -9.63308542 17.90757463 -6.9375 17.9375 C-6.17888672 17.94201172 -5.42027344 17.94652344 -4.63867188 17.95117188 C-2.75908129 17.9629932 -0.87953101 17.98092922 1 18 C1 17.01 1 16.02 1 15 C-3.95 15 -8.9 15 -14 15 C-11.82553559 10.46198733 -5.71768012 0 0 0 Z " fill="#FC1F16" transform="translate(198,173)"/>
<path d="M0 0 C5.61 0 11.22 0 17 0 C17.13390458 7.32458061 16.67944265 14.3619327 15.75 21.625 C15.58564453 23.10226563 15.58564453 23.10226563 15.41796875 24.609375 C14.47883045 32.02362477 12.85307924 38.71805435 7.125 43.875 C4.0729378 45.9504023 1.49537291 46.91925796 -2 48 C-2.27790437 36.7757513 -1.70276839 25.74094036 -0.71142578 14.55688477 C-0.62103027 13.53393311 -0.53063477 12.51098145 -0.4375 11.45703125 C-0.35371094 10.54928955 -0.26992188 9.64154785 -0.18359375 8.70629883 C0.01287521 5.81021056 0 2.90274479 0 0 Z " fill="#CBB2F3" transform="translate(309,191)"/>
<path d="M0 0 C13.53 0 27.06 0 41 0 C41 9 41 9 40 13 C34.32169922 13.02464705 28.64342931 13.04283462 22.96508789 13.05493164 C21.03181415 13.05997256 19.09854424 13.06680519 17.1652832 13.07543945 C14.39273128 13.08751565 11.62022959 13.09323057 8.84765625 13.09765625 C7.54297142 13.10539818 7.54297142 13.10539818 6.21192932 13.11329651 C4.14094186 13.11349185 2.07005676 13.06208168 0 13 C-1 12 -1 12 -1.125 8.75 C-1 5 -1 5 0 0 Z " fill="#DAF57B" transform="translate(267,213)"/>
<path d="M0 0 C13.53 0 27.06 0 41 0 C41 9 41 9 40 13 C35.74976862 12.88060501 31.49971595 12.75629836 27.24975586 12.62768555 C25.80773698 12.58470988 24.36567933 12.54301352 22.92358398 12.50268555 C15.24044167 12.28697167 7.62874696 12.01432502 0 11 C0 7.37 0 3.74 0 0 Z " fill="#DBF57C" transform="translate(268,199)"/>
<path d="M0 0 C2.64 0 5.28 0 8 0 C8.01401855 0.83192871 8.01401855 0.83192871 8.02832031 1.68066406 C8.08215722 4.20466481 8.16577254 6.72683814 8.25 9.25 C8.26417969 10.12269531 8.27835937 10.99539062 8.29296875 11.89453125 C8.44503855 17.09431288 8.44503855 17.09431288 10.921875 21.546875 C14.21882857 23.85226359 16.23086949 24.16272575 20.2265625 24.31640625 C21.2578125 24.35830078 22.2890625 24.40019531 23.3515625 24.44335938 C24.43179687 24.48267578 25.51203125 24.52199219 26.625 24.5625 C28.25695312 24.62727539 28.25695312 24.62727539 29.921875 24.69335938 C32.6144517 24.7996453 35.30712253 24.90168057 38 25 C38 26.98 38 28.96 38 31 C24.47 31 10.94 31 -3 31 C-2 18 -2 18 -1 17 C1.67058851 16.85884839 4.32432238 16.95752893 7 17 C7 16.34 7 15.68 7 15 C4.03 15 1.06 15 -2 15 C-2.04254356 13.00045254 -2.04080783 10.99958364 -2 9 C-1.67 8.67 -1.34 8.34 -1 8 C-0.76924918 6.65252916 -0.58846937 5.29622435 -0.4375 3.9375 C-0.2209375 1.9884375 -0.2209375 1.9884375 0 0 Z " fill="#DBF57C" transform="translate(271,166)"/>
<path d="M0 0 C13.53 0 27.06 0 41 0 C41 3.63 41 7.26 41 11 C27.14 11 13.28 11 -1 11 C-0.67 7.37 -0.34 3.74 0 0 Z " fill="#DCF481" transform="translate(266,228)"/>
<path d="M0 0 C1.9249647 1.82193842 3.37535531 3.89235283 5 6 C5.8353125 5.80083984 5.8353125 5.80083984 6.6875 5.59765625 C11.7858701 4.41779695 16.79787441 3.56750461 22 3 C21.57389641 7.81497062 19.73444129 9.60639722 16.125 12.6875 C14.79855469 13.83798828 14.79855469 13.83798828 13.4453125 15.01171875 C8.54027505 19 8.54027505 19 4 19 C3.7525 19.804375 3.505 20.60875 3.25 21.4375 C2.8375 22.283125 2.425 23.12875 2 24 C-0.078125 24.66015625 -0.078125 24.66015625 -2 25 C-4.03355151 22.73950295 -6.05161088 20.46800554 -8.0625 18.1875 C-8.93358398 17.22360352 -8.93358398 17.22360352 -9.82226562 16.24023438 C-10.36689453 15.61826172 -10.91152344 14.99628906 -11.47265625 14.35546875 C-11.98062744 13.78465576 -12.48859863 13.21384277 -13.01196289 12.62573242 C-13.33801514 12.08924072 -13.66406738 11.55274902 -14 11 C-12.75769501 7.27308502 -11.17471905 6.23901559 -8.125 3.8125 C-7.24070313 3.09707031 -6.35640625 2.38164062 -5.4453125 1.64453125 C-3 0 -3 0 0 0 Z " fill="#FD5C4F" transform="translate(239,299)"/>
<path d="M0 0 C0.66 0.33 1.32 0.66 2 1 C0.21674227 5.22253254 -2.5251973 7.29973839 -6.02734375 10.12109375 C-8.47009798 12.2809184 -8.47009798 12.2809184 -11 17 C-4.07 17.495 -4.07 17.495 3 18 C3 18.99 3 19.98 3 21 C-2.28 21.33 -7.56 21.66 -13 22 C-13.33 24.31 -13.66 26.62 -14 29 C-8.39 29 -2.78 29 3 29 C3 29.99 3 30.98 3 32 C-0.60993172 33.13480527 -3.9842327 33.10015767 -7.75 33.0625 C-8.92046875 33.05347656 -10.0909375 33.04445312 -11.296875 33.03515625 C-12.18890625 33.02355469 -13.0809375 33.01195312 -14 33 C-14 34.65 -14 36.3 -14 38 C-13.443125 37.7834375 -12.88625 37.566875 -12.3125 37.34375 C-6.94811407 35.38647405 -2.70147617 34.68901039 3 35 C3 35.99 3 36.98 3 38 C1.77023438 38.19916016 1.77023438 38.19916016 0.515625 38.40234375 C-0.56203125 38.57894531 -1.6396875 38.75554687 -2.75 38.9375 C-3.81734375 39.11152344 -4.8846875 39.28554687 -5.984375 39.46484375 C-8.36347593 39.88704171 -10.66915211 40.37202884 -13 41 C-9.89925376 47.58508995 -7.02502274 53.67938769 -2 59 C-4.625 59.0625 -4.625 59.0625 -8 58 C-11.65650165 53.83708146 -14.06027729 49.16039438 -16 44 C-17.485 44.495 -17.485 44.495 -19 45 C-19.05429278 42.29139335 -19.09381211 39.58389099 -19.125 36.875 C-19.14175781 36.11445313 -19.15851563 35.35390625 -19.17578125 34.5703125 C-19.21546246 29.96729269 -18.75907577 26.33535996 -17 22 C-17.66 22 -18.32 22 -19 22 C-19 21.01 -19 20.02 -19 19 C-18.01 18.67 -17.02 18.34 -16 18 C-14.86038097 16.17088339 -14.86038097 16.17088339 -13.875 13.9375 C-10.81837641 8.09532954 -5.95694957 2.97847478 0 0 Z " fill="#83B8C9" transform="translate(196,170)"/>
<path d="M0 0 C3.63860557 2.02003146 6.42232676 4.19935479 9.3125 7.1875 C10.00988281 7.90292969 10.70726563 8.61835938 11.42578125 9.35546875 C12.20501953 10.16951172 12.20501953 10.16951172 13 11 C11.02 13.97 11.02 13.97 9 17 C9.721875 17.226875 10.44375 17.45375 11.1875 17.6875 C14.58457087 19.27279974 16.5749552 21.15923323 19 24 C19 24.99 19 25.98 19 27 C10.37810865 27.84528347 2.15631898 24.77087932 -5 20 C-5.33 19.01 -5.66 18.02 -6 17 C-8.01508358 16.26676204 -8.01508358 16.26676204 -10 16 C-10.83984375 13.86328125 -10.83984375 13.86328125 -11 11 C-9.23526782 8.78736625 -7.63273028 7.06247277 -5.5625 5.1875 C-5.03333984 4.68541016 -4.50417969 4.18332031 -3.95898438 3.66601562 C-2.65239036 2.43004832 -1.32783937 1.21311405 0 0 Z " fill="#FD5C4F" transform="translate(79,296)"/>
<path d="M0 0 C26.07 0 52.14 0 79 0 C79 1.65 79 3.3 79 5 C52.93 5 26.86 5 0 5 C0 3.35 0 1.7 0 0 Z " fill="#D8E3D8" transform="translate(292,160)"/>
<path d="M0 0 C2.79734842 1.98758966 3.84278924 3.10165277 4.4375 6.5 C3.93027366 9.39843626 2.93615523 10.82182537 1 13 C1.969375 13.309375 2.93875 13.61875 3.9375 13.9375 C7 15 7 15 8 16 C8.3125 18.875 8.3125 18.875 8 22 C5.67282562 24.41169645 4.25173917 24.96757905 0.90625 25.3984375 C-0.2178125 25.39070313 -1.341875 25.38296875 -2.5 25.375 C-4.18609375 25.38660156 -4.18609375 25.38660156 -5.90625 25.3984375 C-9.2534583 24.96735764 -10.65958357 24.39667644 -13 22 C-13.5 19 -13.5 19 -13 16 C-11.125 14.125 -11.125 14.125 -9 13 C-8.34 13 -7.68 13 -7 13 C-7.495 12.443125 -7.99 11.88625 -8.5 11.3125 C-10.30684791 8.5269428 -10.57035173 7.25915277 -10 4 C-7.16979976 -0.02759265 -4.82432618 -0.80405436 0 0 Z " fill="#4B35A2" transform="translate(313,125)"/>
<path d="M0 0 C2.9375 0.8125 2.9375 0.8125 4.9375 2.8125 C4.9375 3.8025 4.9375 4.7925 4.9375 5.8125 C7.89925123 5.19972388 9.31808783 4.55877478 11.9375 2.8125 C14.25220912 2.08379528 16.5880947 1.42010482 18.9375 0.8125 C19.845 0.544375 20.7525 0.27625 21.6875 0 C23.9375 -0.1875 23.9375 -0.1875 25.75 0.9375 C27.40366591 3.54855143 27.50561943 4.75885806 26.9375 7.8125 C24.54643597 12.26482612 24.54643597 12.26482612 21.9375 13.8125 C18.16354622 14.02451988 14.63980039 13.52572775 10.9375 12.8125 C11.2675 14.7925 11.5975 16.7725 11.9375 18.8125 C10.6175 19.1425 9.2975 19.4725 7.9375 19.8125 C6.06129578 16.64640538 5.84087178 14.45417599 5.9375 10.8125 C5.23882812 10.83570313 4.54015625 10.85890625 3.8203125 10.8828125 C2.91023437 10.90085938 2.00015625 10.91890625 1.0625 10.9375 C0.15757812 10.96070313 -0.74734375 10.98390625 -1.6796875 11.0078125 C-4.0625 10.8125 -4.0625 10.8125 -6.0625 8.8125 C-6.39552312 5.6820827 -6.53921956 3.63351702 -4.9375 0.875 C-3.0625 -0.1875 -3.0625 -0.1875 0 0 Z " fill="#5337A0" transform="translate(162.0625,138.1875)"/>
<path d="M0 0 C7.79018788 -0.02340894 15.58036717 -0.04105792 23.37058163 -0.05181217 C26.98982442 -0.05697965 30.60904276 -0.06396231 34.22827148 -0.07543945 C64.99186123 -0.17053406 64.99186123 -0.17053406 79 1 C79 2.32 79 3.64 79 5 C52.64974542 5.15317175 26.33973195 4.73980274 0 4 C0 2.68 0 1.36 0 0 Z " fill="#D8E3D8" transform="translate(292,169)"/>
<path d="M0 0 C-0.02320313 0.91523438 -0.04640625 1.83046875 -0.0703125 2.7734375 C-0.08835938 3.96195313 -0.10640625 5.15046875 -0.125 6.375 C-0.14820313 7.55835938 -0.17140625 8.74171875 -0.1953125 9.9609375 C-0.32866229 13.11153817 -0.32866229 13.11153817 2 15 C2 14.34 2 13.68 2 13 C2.969375 12.87625 3.93875 12.7525 4.9375 12.625 C5.948125 12.41875 6.95875 12.2125 8 12 C9.21693876 9.56612247 9.31959896 7.58161154 9.5625 4.875 C9.64628906 3.96492187 9.73007813 3.05484375 9.81640625 2.1171875 C9.87699219 1.41851562 9.93757812 0.71984375 10 0 C10.66 0 11.32 0 12 0 C12.33 1.98 12.66 3.96 13 6 C14.32 5.67 15.64 5.34 17 5 C16.4930845 11.20971484 14.91433971 16.28081697 10.25 20.6328125 C9.04933796 21.62836144 7.82913351 22.60107134 6.5859375 23.54296875 C4.78594086 25.19666025 3.96384688 26.77170053 3 29 C2.67 28.34 2.34 27.68 2 27 C-0.31 28.32 -2.62 29.64 -5 31 C-5.05805933 26.75005737 -5.09361654 22.50021676 -5.125 18.25 C-5.14175781 17.0434375 -5.15851563 15.836875 -5.17578125 14.59375 C-5.18222656 13.43359375 -5.18867188 12.2734375 -5.1953125 11.078125 C-5.20578613 10.00981445 -5.21625977 8.94150391 -5.22705078 7.84082031 C-4.99922 4.99024074 -4.56687748 3.36922325 -3 1 C-1 0 -1 0 0 0 Z " fill="#FBB1CC" transform="translate(215,170)"/>
<path d="M0 0 C2.39456322 1.25764875 4.68527204 2.5930085 7 4 C7.76681614 13.73004484 7.76681614 13.73004484 5.88671875 16.84375 C4.5 18.1875 4.5 18.1875 2 20 C-3.44876003 18.27933894 -8.71169451 16.15294651 -14 14 C-14.26797282 5.37462474 -14.26797282 5.37462474 -11.328125 2.1875 C-7.45123335 -0.37766139 -4.49023474 -1.95728181 0 0 Z " fill="#FB5D51" transform="translate(169,197)"/>
<path d="M0 0 C1.22264305 -0.0049926 1.22264305 -0.0049926 2.46998596 -0.01008606 C4.19751418 -0.01515867 5.92505223 -0.01749428 7.65258789 -0.01733398 C10.3017587 -0.01951917 12.95051241 -0.03766746 15.59960938 -0.05664062 C17.27473815 -0.05957469 18.94986892 -0.0615594 20.625 -0.0625 C21.42087021 -0.06968552 22.21674042 -0.07687103 23.03672791 -0.08427429 C28.65008398 -0.06085352 28.65008398 -0.06085352 30.87890625 2.16796875 C30.32335069 6.72352431 30.32335069 6.72352431 28.87890625 8.16796875 C26.24774356 8.29375228 23.64424705 8.35661819 21.01171875 8.37109375 C20.2211911 8.37679382 19.43066345 8.3824939 18.61618042 8.3883667 C16.93993474 8.39783083 15.26367033 8.40435627 13.58740234 8.40820312 C11.02147942 8.41790232 8.45635948 8.44890869 5.890625 8.48046875 C4.26432769 8.48699918 2.63802463 8.49224949 1.01171875 8.49609375 C-0.14153397 8.51461395 -0.14153397 8.51461395 -1.31808472 8.5335083 C-6.62031677 8.51132416 -6.62031677 8.51132416 -9.14501953 6.78027344 C-10.12109375 5.16796875 -10.12109375 5.16796875 -9.87109375 3.04296875 C-8.131448 -1.30614563 -4.07549647 0.0056841 0 0 Z " fill="#FDF867" transform="translate(340.12109375,145.83203125)"/>
<path d="M0 0 C7.07193189 -0.02590344 14.14385107 -0.04309135 21.21582031 -0.05493164 C23.6087286 -0.05988094 26.00163401 -0.06664204 28.39453125 -0.07543945 C45.28864913 -0.13587716 62.12375625 0.21024074 79 1 C79 2.32 79 3.64 79 5 C52.93 4.67 26.86 4.34 0 4 C0 2.68 0 1.36 0 0 Z " fill="#D7E2D7" transform="translate(292,178)"/>
<path d="M0 0 C1.17046875 0.03609375 2.3409375 0.0721875 3.546875 0.109375 C4.43890625 0.15578125 5.3309375 0.2021875 6.25 0.25 C6.27692484 2.54160319 6.29636124 4.83329546 6.3125 7.125 C6.32410156 8.40117187 6.33570313 9.67734375 6.34765625 10.9921875 C6.25 14.25 6.25 14.25 5.25 16.25 C-0.36 16.25 -5.97 16.25 -11.75 16.25 C-11.26071429 4.99642857 -11.26071429 4.99642857 -9.125 1.875 C-5.93704974 -0.30622913 -3.82483586 -0.15299343 0 0 Z " fill="#DBF47F" transform="translate(261.75,164.75)"/>
<path d="M0 0 C3.34265205 1.20706879 3.94704566 1.92056849 6 5 C6.55377603 9.90487343 6.75639171 11.89979388 3.9375 16 C0.22192774 18.52975133 -1.5882483 18.7878128 -6 18 C-8.91963173 16.01216563 -10.61102978 14.5685303 -11.48046875 11.0625 C-11.76091862 7.06040455 -11.24214679 5.34185429 -8.875 2 C-5.50172663 -0.34662495 -4.02250703 -0.59909679 0 0 Z " fill="#B12D1C" transform="translate(187,37)"/>
<path d="M0 0 C0.9584336 2.87530081 1.06656387 4.29049931 0.87890625 7.23046875 C0.83056641 8.03291016 0.78222656 8.83535156 0.73242188 9.66210938 C0.67634766 10.49548828 0.62027344 11.32886719 0.5625 12.1875 C0.51029297 13.03248047 0.45808594 13.87746094 0.40429688 14.74804688 C0.27476311 16.83236299 0.13806823 18.91623182 0 21 C-3.18695999 21.34978829 -4.55217121 21.34694429 -7.1328125 19.34765625 C-11.636347 14.18183727 -14.47526187 9.71837737 -16 3 C-10.47239641 0.89424625 -5.93002267 -0.37851209 0 0 Z " fill="#FB5E53" transform="translate(199,208)"/>
<path d="M0 0 C5.44693314 -0.09688221 10.63904667 -0.12862175 16 1 C17.39076722 5.94495011 16.71102537 8.31179702 16 14 C10.39 14 4.78 14 -1 14 C-1.125 3.375 -1.125 3.375 0 0 Z " fill="#DAF47D" transform="translate(248,212)"/>
<path d="M0 0 C-0.11442461 1.60495567 -0.24194694 3.20898119 -0.375 4.8125 C-0.44460938 5.70582031 -0.51421875 6.59914062 -0.5859375 7.51953125 C-1 10 -1 10 -3 13 C-8.27049218 14.32710235 -13.72665694 14.24894967 -19 13 C-19.0272415 11.58344207 -19.04650467 10.16672955 -19.0625 8.75 C-19.07410156 7.96109375 -19.08570313 7.1721875 -19.09765625 6.359375 C-19.00385306 4.09308998 -18.63241063 2.1711105 -18 0 C-11.96496237 -1.50875941 -6.10261631 -0.64186094 0 0 Z " fill="#DBF57E" transform="translate(268,183)"/>
<path d="M0 0 C0.66 0 1.32 0 2 0 C2 0.66 2 1.32 2 2 C2.99 2 3.98 2 5 2 C4.85962479 3.81293089 4.71255111 5.6253443 4.5625 7.4375 C4.48128906 8.44683594 4.40007812 9.45617187 4.31640625 10.49609375 C4 13 4 13 3 14 C0.9412232 14.27953219 -1.11728432 14.44734351 -3.1875 14.62109375 C-3.785625 14.74613281 -4.38375 14.87117187 -5 15 C-5.33 15.66 -5.66 16.32 -6 17 C-8.31 16.67 -10.62 16.34 -13 16 C-12.67 13.36 -12.34 10.72 -12 8 C-11.01 7.67 -10.02 7.34 -9 7 C-9.33 5.02 -9.66 3.04 -10 1 C-6.7 1 -3.4 1 0 1 C0 0.67 0 0.34 0 0 Z " fill="#EBA5BC" transform="translate(183,150)"/>
<path d="M0 0 C5.61 0.33 11.22 0.66 17 1 C17.1953125 8.6171875 17.1953125 8.6171875 17 11 C16.34 11.66 15.68 12.32 15 13 C12.24410223 12.98252073 9.61213324 12.86136729 6.875 12.625 C6.12089844 12.56828125 5.36679688 12.5115625 4.58984375 12.453125 C2.72581904 12.3115535 0.86278863 12.15700041 -1 12 C-0.67 8.04 -0.34 4.08 0 0 Z " fill="#DAF57C" transform="translate(249,198)"/>
<path d="M0 0 C5.61 0 11.22 0 17 0 C16.67 3.63 16.34 7.26 16 11 C10.39 11 4.78 11 -1 11 C-1 4 -1 4 0 0 Z " fill="#DBF47F" transform="translate(247,228)"/>
<path d="M0 0 C1.9296875 0.37890625 1.9296875 0.37890625 4 1 C5.125 2.9375 5.125 2.9375 6 5 C6.66 5.66 7.32 6.32 8 7 C8.1953125 9.1640625 8.1953125 9.1640625 8.125 11.625 C8.10695312 12.44226563 8.08890625 13.25953125 8.0703125 14.1015625 C8.03550781 15.04128906 8.03550781 15.04128906 8 16 C8.66 16 9.32 16 10 16 C10.042721 17.66611905 10.04063832 19.33382885 10 21 C9 22 9 22 5.9375 22.0625 C4.968125 22.041875 3.99875 22.02125 3 22 C3.66 23.65 4.32 25.3 5 27 C1.87726649 24.74278003 0.23424559 23.40519632 -0.41259766 19.52490234 C-0.49185597 16.56575486 -0.43549656 13.64509427 -0.3125 10.6875 C-0.28994141 9.66076172 -0.26738281 8.63402344 -0.24414062 7.57617188 C-0.18537575 5.0492821 -0.10327849 2.52539745 0 0 Z " fill="#80BCCC" transform="translate(214,161)"/>
<path d="M0 0 C0.66 0 1.32 0 2 0 C2.33 1.32 2.66 2.64 3 4 C3.556875 3.855625 4.11375 3.71125 4.6875 3.5625 C9.94136317 2.28453328 14.59708529 1.80353037 20 2 C20 2.99 20 3.98 20 5 C18.77023438 5.19916016 18.77023438 5.19916016 17.515625 5.40234375 C15.89914063 5.66724609 15.89914063 5.66724609 14.25 5.9375 C12.64898437 6.19853516 12.64898437 6.19853516 11.015625 6.46484375 C8.63652407 6.88704171 6.33084789 7.37202884 4 8 C7.10074624 14.58508995 9.97497726 20.67938769 15 26 C12.375 26.0625 12.375 26.0625 9 25 C5.34349835 20.83708146 2.93972271 16.16039438 1 11 C0.01 11.33 -0.98 11.66 -2 12 C-1.855625 11.319375 -1.71125 10.63875 -1.5625 9.9375 C-0.93054091 6.63726918 -0.45686059 3.32855574 0 0 Z " fill="#85B7C7" transform="translate(179,203)"/>
<path d="M0 0 C0.33 0.99 0.66 1.98 1 3 C2.98 3 4.96 3 7 3 C7 6.96 7 10.92 7 15 C3.04 15 -0.92 15 -5 15 C-5.44041451 7.60103627 -5.44041451 7.60103627 -5 4 C-2.5 1.3125 -2.5 1.3125 0 0 Z " fill="#F5F6F1" transform="translate(217,196)"/>
<path d="M0 0 C3.96 0 7.92 0 12 0 C12 3.96 12 7.92 12 12 C8.04 12 4.08 12 0 12 C0 8.04 0 4.08 0 0 Z " fill="#F6F7F4" transform="translate(47,193)"/>
<path d="M0 0 C3.63 0 7.26 0 11 0 C11 3.96 11 7.92 11 12 C9.02 12 7.04 12 5 12 C4.67 13.32 4.34 14.64 4 16 C4 14.68 4 13.36 4 12 C2.35 12 0.7 12 -1 12 C-0.67 8.04 -0.34 4.08 0 0 Z " fill="#F6F8F2" transform="translate(224,84)"/>
<path d="M0 0 C1.17949219 0.01804688 2.35898438 0.03609375 3.57421875 0.0546875 C4.92966797 0.08949219 4.92966797 0.08949219 6.3125 0.125 C4.79433433 3.7000353 2.68097779 6.0247513 -0.0625 8.75 C-0.83335937 9.52601563 -1.60421875 10.30203125 -2.3984375 11.1015625 C-4.4545065 12.91904329 -6.18015929 14.06023887 -8.6875 15.125 C-9.51308668 12.20881479 -9.87670445 9.52964506 -9.9375 6.5 C-9.96328125 5.72398437 -9.9890625 4.94796875 -10.015625 4.1484375 C-9.90734375 3.48070312 -9.7990625 2.81296875 -9.6875 2.125 C-6.05554504 -0.29630331 -4.30400652 -0.08522785 0 0 Z " fill="#FC6152" transform="translate(170.6875,165.875)"/>
<path d="M0 0 C3.63 0 7.26 0 11 0 C11.33 3.96 11.66 7.92 12 12 C8.04 12 4.08 12 0 12 C0 8.04 0 4.08 0 0 Z " fill="#F7F9F3" transform="translate(77,83)"/>
<path d="M0 0 C5.46745898 -0.45562158 8.44685704 0.41698219 13.10546875 3.3203125 C15.02831675 4.2393251 15.02831675 4.2393251 17.05078125 3.2421875 C18.71397315 2.18227763 20.35902126 1.09398583 22 0 C22 3.96 22 7.92 22 12 C21.67 11.34 21.34 10.68 21 10 C20.59676514 10.48895752 20.19353027 10.97791504 19.77807617 11.48168945 C17.53597554 13.39623344 16.46150215 13.35157387 13.55078125 13.29296875 C12.70322266 13.28330078 11.85566406 13.27363281 10.98242188 13.26367188 C9.66081055 13.2259668 9.66081055 13.2259668 8.3125 13.1875 C7.41982422 13.17396484 6.52714844 13.16042969 5.60742188 13.14648438 C3.40433834 13.11114079 1.20247418 13.06180493 -1 13 C-1 12.67 -1 12.34 -1 12 C5.435 11.505 5.435 11.505 12 11 C12.33 10.01 12.66 9.02 13 8 C11.3970947 7.18501438 9.79262722 6.37310073 8.1875 5.5625 C7.29417969 5.11003906 6.40085938 4.65757812 5.48046875 4.19140625 C2.96000522 2.9168395 2.96000522 2.9168395 0 2 C0 1.34 0 0.68 0 0 Z " fill="#9DA4AF" transform="translate(154,212)"/>
<path d="M0 0 C1.48831242 0.00667405 2.97660807 0.01863442 4.46484375 0.03515625 C5.22345703 0.03966797 5.98207031 0.04417969 6.76367188 0.04882812 C8.64326246 0.06064945 10.52281274 0.07858547 12.40234375 0.09765625 C12.40234375 2.73765625 12.40234375 5.37765625 12.40234375 8.09765625 C6.79234375 8.09765625 1.18234375 8.09765625 -4.59765625 8.09765625 C-4.59765625 0.12480066 -4.59765625 0.12480066 0 0 Z " fill="#FB5D51" transform="translate(186.59765625,190.90234375)"/>
<path d="M0 0 C0 4.29 0 8.58 0 13 C0.66 13.33 1.32 13.66 2 14 C1 15 1 15 -2.37890625 15.09765625 C-3.77347077 15.09098369 -5.16801743 15.07902532 -6.5625 15.0625 C-7.62887695 15.05573242 -7.62887695 15.05573242 -8.71679688 15.04882812 C-10.47790013 15.03700864 -12.23896036 15.01907263 -14 15 C-11.82553559 10.46198733 -5.71768012 0 0 0 Z " fill="#FB5D51" transform="translate(198,173)"/>
<path d="M0 0 C0.99 0.33 1.98 0.66 3 1 C2.67 5.29 2.34 9.58 2 14 C-0.97 14.66 -3.94 15.32 -7 16 C-9.62386487 12.93882432 -10 12.26826873 -10 8 C-8.3203125 6.3671875 -8.3203125 6.3671875 -6.125 4.875 C-3.87699597 3.31992911 -1.93794746 1.93794746 0 0 Z " fill="#F95C4F" transform="translate(174,175)"/>
<path d="M0 0 C0.66 0.33 1.32 0.66 2 1 C2 2.65 2 4.3 2 6 C7.61 6 13.22 6 19 6 C19 6.99 19 7.98 19 9 C15.39006828 10.13480527 12.0157673 10.10015767 8.25 10.0625 C7.07953125 10.05347656 5.9090625 10.04445312 4.703125 10.03515625 C3.81109375 10.02355469 2.9190625 10.01195312 2 10 C1.67 11.32 1.34 12.64 1 14 C1 12.68 1 11.36 1 10 C0.34 10 -0.32 10 -1 10 C-1 12.31 -1 14.62 -1 17 C-1.66 17.33 -2.32 17.66 -3 18 C-3.02709444 15.91673869 -3.04643873 13.83337559 -3.0625 11.75 C-3.07410156 10.58984375 -3.08570313 9.4296875 -3.09765625 8.234375 C-3.01754615 5.58112855 -2.93496454 3.46971766 -2 1 C-1.34 0.67 -0.68 0.34 0 0 Z " fill="#AD9CA5" transform="translate(180,193)"/>
<path d="M0 0 C5.38060034 0.36478646 9.31147432 1.14114288 14 4 C14.33 4.66 14.66 5.32 15 6 C14.01 7.485 14.01 7.485 13 9 C10.37302936 9.22137393 7.99106036 9.28162025 5.375 9.1875 C4.66859375 9.17396484 3.9621875 9.16042969 3.234375 9.14648438 C1.48925872 9.1111104 -0.25546608 9.05730221 -2 9 C-1.125 1.125 -1.125 1.125 0 0 Z " fill="#FC5D50" transform="translate(153,215)"/>
<path d="M0 0 C2.74596832 1.37298416 3.13089651 2.99839889 4.4375 5.75 C6.14713331 9.33004717 7.94321166 12.57201944 10 16 C6.04 16 2.08 16 -2 16 C-2.77692051 12.11539745 -3.11096771 10.03522362 -2.6875 6.3125 C-2.60886719 5.54550781 -2.53023437 4.77851563 -2.44921875 3.98828125 C-2 2 -2 2 0 0 Z " fill="#F95C50" transform="translate(179,213)"/>
<path d="M0 0 C1.64574566 -0.02688151 3.29161413 -0.04634123 4.9375 -0.0625 C5.85402344 -0.07410156 6.77054688 -0.08570313 7.71484375 -0.09765625 C10 0 10 0 11 1 C11.20356195 7.4122015 10.74428438 13.6337104 10 20 C9.67 19.01 9.34 18.02 9 17 C8.34 17 7.68 17 7 17 C6.97421875 16.39671875 6.9484375 15.7934375 6.921875 15.171875 C6.62611413 9.93018499 6.62611413 9.93018499 3.9375 5.5625 C3.298125 5.046875 2.65875 4.53125 2 4 C2 3.34 2 2.68 2 2 C1.34 1.34 0.68 0.68 0 0 Z " fill="#CFDED4" transform="translate(215,160)"/>
<path d="M0 0 C0.91078492 2.55019778 1.17843392 3.59554978 0.0625 6.125 C-0.288125 6.74375 -0.63875 7.3625 -1 8 C-1 8.66 -1 9.32 -1 10 C-3.875 10.125 -3.875 10.125 -7 10 C-9 8 -9 8 -9.3125 5.0625 C-9 2 -9 2 -7.875 0.0625 C-5.07329973 -1.52513015 -3.03014356 -0.74070176 0 0 Z " fill="#4D30A1" transform="translate(165,139)"/>
<path d="M0 0 C0.66 0.33 1.32 0.66 2 1 C0.5783312 4.36633493 -1.10840768 6.15631382 -3.9375 8.4375 C-7.07925825 11.06978394 -8.91935194 13.46289829 -11 17 C-13.1875 17.8125 -13.1875 17.8125 -15 18 C-13.52321655 10.36146489 -7.64142688 5.32804589 -1.5390625 1.03125 C-1.03117188 0.6909375 -0.52328125 0.350625 0 0 Z " fill="#8DB4C3" transform="translate(196,170)"/>
<path d="M0 0 C0.33 0 0.66 0 1 0 C1 5.28 1 10.56 1 16 C1.66 16 2.32 16 3 16 C2.76228882 17.29091553 2.76228882 17.29091553 2.51977539 18.60791016 C2.02126103 21.86124907 1.79750626 24.98624806 1.68359375 28.2734375 C1.64169922 29.42714844 1.59980469 30.58085937 1.55664062 31.76953125 C1.51732422 32.95933594 1.47800781 34.14914063 1.4375 35.375 C1.37272461 37.19451172 1.37272461 37.19451172 1.30664062 39.05078125 C1.20094487 42.03375032 1.09884679 45.01679742 1 48 C0.67 48 0.34 48 0 48 C0 39.09 0 30.18 0 21 C-2.475 20.01 -2.475 20.01 -5 19 C-4.34 18.34 -3.68 17.68 -3 17 C-2.01 17 -1.02 17 0 17 C0 11.39 0 5.78 0 0 Z " fill="#7B312C" transform="translate(176,176)"/>
<path d="M0 0 C4.12596703 -0.02492452 8.25190422 -0.04296521 12.37792969 -0.05493164 C13.77832809 -0.05992616 15.17872137 -0.06672408 16.57910156 -0.07543945 C30.898355 -0.16225376 30.898355 -0.16225376 38 1 C38 1.33 38 1.66 38 2 C25.05047981 2.90603667 12.8274102 3.2236628 0 1 C0 0.67 0 0.34 0 0 Z " fill="#A8D54E" transform="translate(271,211)"/>
<path d="M0 0 C1.875 0.9375 1.875 0.9375 3.125 3.5 C3.3725 4.304375 3.62 5.10875 3.875 5.9375 C-2.875 9.9375 -2.875 9.9375 -5.125 9.9375 C-5.455 7.2975 -5.785 4.6575 -6.125 1.9375 C-3.94811446 0.61581949 -2.57282067 -0.0756712 0 0 Z " fill="#FA6053" transform="translate(160.125,187.0625)"/>
<path d="M0 0 C0 0.99 0 1.98 0 3 C-0.89203125 3.13277344 -1.7840625 3.26554688 -2.703125 3.40234375 C-3.87359375 3.57894531 -5.0440625 3.75554687 -6.25 3.9375 C-7.99023438 4.19853516 -7.99023438 4.19853516 -9.765625 4.46484375 C-12.23106961 4.8727736 -14.59424562 5.33901303 -17 6 C-17 4.35 -17 2.7 -17 1 C-14.9168207 0.83141902 -12.83344956 0.66520745 -10.75 0.5 C-9.58984375 0.4071875 -8.4296875 0.314375 -7.234375 0.21875 C-4.82731342 0.05595356 -2.41256049 0 0 0 Z " fill="#F95E52" transform="translate(199,202)"/>
<path d="M0 0 C3.41158256 1.13719419 4.11854601 2.04342944 6 5 C6 5.66 6 6.32 6 7 C2.04 7 -1.92 7 -6 7 C-4.02 4.69 -2.04 2.38 0 0 Z " fill="#FB72DA" transform="translate(168,249)"/>
<path d="M0 0 C2.625 0.375 2.625 0.375 5 1 C5.38218767 2.65614657 5.71395102 4.32457024 6 6 C5 7 5 7 1.9375 7.0625 C0.968125 7.041875 -0.00125 7.02125 -1 7 C-1.625 4.625 -1.625 4.625 -2 2 C-1.34 1.34 -0.68 0.68 0 0 Z " fill="#5339A5" transform="translate(74,49)"/>
<path d="M0 0 C6.07328688 -0.50610724 9.77228537 0.95842058 15 4 C14.01 4.99 13.02 5.98 12 7 C8.04 5.35 4.08 3.7 0 2 C0 1.34 0 0.68 0 0 Z " fill="#8CB4C3" transform="translate(154,212)"/>
<path d="M0 0 C0.33 0.66 0.66 1.32 1 2 C3.97 2 6.94 2 10 2 C10 2.99 10 3.98 10 5 C6.7 5 3.4 5 0 5 C-0.66 6.32 -1.32 7.64 -2 9 C-2.33 7.68 -2.66 6.36 -3 5 C-4.98 5 -6.96 5 -9 5 C-9 4.67 -9 4.34 -9 4 C-7.88625 3.896875 -6.7725 3.79375 -5.625 3.6875 C-4.42875 3.460625 -3.2325 3.23375 -2 3 C-1.34 2.01 -0.68 1.02 0 0 Z " fill="#B5DD5A" transform="translate(267,208)"/>
<path d="M0 0 C2.625 0.375 2.625 0.375 5 1 C5.625 2.875 5.625 2.875 6 5 C4 7 4 7 1.375 7.125 C0.59125 7.08375 -0.1925 7.0425 -1 7 C-1.625 4.625 -1.625 4.625 -2 2 C-1.34 1.34 -0.68 0.68 0 0 Z " fill="#5137A4" transform="translate(97,49)"/>
<path d="M0 0 C1.64574566 -0.02688151 3.29161413 -0.04634123 4.9375 -0.0625 C5.85402344 -0.07410156 6.77054688 -0.08570313 7.71484375 -0.09765625 C10 0 10 0 11 1 C11.20356195 7.4122015 10.74428438 13.6337104 10 20 C9.67 19.01 9.34 18.02 9 17 C8.34 17 7.68 17 7 17 C7.99 12.05 8.98 7.1 10 2 C7.69 2 5.38 2 3 2 C2.01 1.34 1.02 0.68 0 0 Z " fill="#9EC2CB" transform="translate(215,160)"/>
<path d="M0 0 C1.67542976 0.28604898 3.34385343 0.61781233 5 1 C5.38218767 2.65614657 5.71395102 4.32457024 6 6 C5 7 5 7 1.9375 7.0625 C0.4834375 7.0315625 0.4834375 7.0315625 -1 7 C-1.04254356 5.00045254 -1.04080783 2.99958364 -1 1 C-0.67 0.67 -0.34 0.34 0 0 Z " fill="#5036A4" transform="translate(120,49)"/>
<path d="M0 0 C0.33 0 0.66 0 1 0 C1.33 3.63 1.66 7.26 2 11 C-0.475 12.485 -0.475 12.485 -3 14 C-3.34615998 8.34605369 -2.43425238 4.96993194 0 0 Z " fill="#FA6053" transform="translate(157,172)"/>
<path d="M0 0 C0.66 0.33 1.32 0.66 2 1 C2 3.31 2 5.62 2 8 C2.99 8.33 3.98 8.66 5 9 C3.02 9.99 3.02 9.99 1 11 C3.31 11 5.62 11 8 11 C8 11.33 8 11.66 8 12 C6.02 12 4.04 12 2 12 C2.66 13.65 3.32 15.3 4 17 C1.56918105 15.33992853 0.38687662 14.53053234 -1 12 C-1.1484257 7.92359406 -0.6476204 4.02037613 0 0 Z " fill="#707785" transform="translate(215,171)"/>
<path d="M0 0 C0 0.99 0 1.98 0 3 C-5.61 3 -11.22 3 -17 3 C-16.67 2.34 -16.34 1.68 -16 1 C-13.92578125 0.5859375 -13.92578125 0.5859375 -11.3125 0.375 C-10.41402344 0.30152344 -9.51554688 0.22804687 -8.58984375 0.15234375 C-5.72049257 -0.01644161 -2.87353366 -0.07561931 0 0 Z " fill="#7FBACC" transform="translate(199,199)"/>
<path d="M0 0 C0 0.99 0 1.98 0 3 C-3.3 3.33 -6.6 3.66 -10 4 C-10 3.34 -10 2.68 -10 2 C-10.99 1.67 -11.98 1.34 -13 1 C-8.59085217 -0.10228696 -4.51617599 -0.07654536 0 0 Z " fill="#8DB3C3" transform="translate(199,205)"/>
<path d="M0 0 C2.45811625 3.68717438 2.31118164 5.64345704 2 10 C1.01 11.485 1.01 11.485 0 13 C-2.6015625 13.29296875 -2.6015625 13.29296875 -5.625 13.1875 C-7.12933594 13.14689453 -7.12933594 13.14689453 -8.6640625 13.10546875 C-9.43492187 13.07066406 -10.20578125 13.03585938 -11 13 C-11 12.67 -11 12.34 -11 12 C-8.03 12 -5.06 12 -2 12 C-1.34 8.04 -0.68 4.08 0 0 Z " fill="#B2DB57" transform="translate(267,184)"/>
<path d="M0 0 C0.66 0 1.32 0 2 0 C2.02505615 0.61520508 2.0501123 1.23041016 2.07592773 1.86425781 C2.19218487 4.65970156 2.31477642 7.45483298 2.4375 10.25 C2.47681641 11.21808594 2.51613281 12.18617188 2.55664062 13.18359375 C2.59853516 14.11816406 2.64042969 15.05273438 2.68359375 16.015625 C2.72025146 16.87446289 2.75690918 17.73330078 2.79467773 18.61816406 C2.98703514 20.84960143 3.38846244 22.84982524 4 25 C2.68 24.67 1.36 24.34 0 24 C0 16.08 0 8.16 0 0 Z " fill="#FD8761" transform="translate(208,179)"/>
<path d="M0 0 C0.33 0.99 0.66 1.98 1 3 C1.66 3 2.32 3 3 3 C2.67 4.65 2.34 6.3 2 8 C0.68 8 -0.64 8 -2 8 C-2.6875 6.25 -2.6875 6.25 -3 4 C-1.5625 1.75 -1.5625 1.75 0 0 Z " fill="#E972CD" transform="translate(166,141)"/>
<path d="M0 0 C0.99 0.33 1.98 0.66 3 1 C3 3.64 3 6.28 3 9 C2.01 9 1.02 9 0 9 C0 6.03 0 3.06 0 0 Z " fill="#B2DC57" transform="translate(268,165)"/>
<path d="M0 0 C1.99954746 -0.04254356 4.00041636 -0.04080783 6 0 C6.33 0.33 6.66 0.66 7 1 C8.51469448 1.23192865 10.03754562 1.41215238 11.5625 1.5625 C12.38878906 1.64628906 13.21507812 1.73007813 14.06640625 1.81640625 C14.70449219 1.87699219 15.34257812 1.93757812 16 2 C16 2.33 16 2.66 16 3 C4.47835991 3.18451025 4.47835991 3.18451025 -1 2 C-0.67 1.34 -0.34 0.68 0 0 Z " fill="#B2DC58" transform="translate(249,196)"/>
<path d="M0 0 C1.98 0 3.96 0 6 0 C6 0.66 6 1.32 6 2 C9.3 2 12.6 2 16 2 C16 2.33 16 2.66 16 3 C10.06 3.495 10.06 3.495 4 4 C3.67 3.34 3.34 2.68 3 2 C2.01 1.34 1.02 0.68 0 0 Z " fill="#A8683B" transform="translate(177,164)"/>
<path d="M0 0 C0 1.32 0 2.64 0 4 C-1.65 4 -3.3 4 -5 4 C-5.33 3.01 -5.66 2.02 -6 1 C-3 0 -3 0 0 0 Z " fill="#93AAB8" transform="translate(176,189)"/>
<path d="M0 0 C0.33 0 0.66 0 1 0 C1 2.97 1 5.94 1 9 C0.01 8.67 -0.98 8.34 -2 8 C-1.125 1.125 -1.125 1.125 0 0 Z " fill="#F76958" transform="translate(157,172)"/>
<path d="M0 0 C0.33 0 0.66 0 1 0 C1 4.62 1 9.24 1 14 C0.67 13.01 0.34 12.02 0 11 C-0.66 11 -1.32 11 -2 11 C-1.34 7.37 -0.68 3.74 0 0 Z " fill="#ABC5D0" transform="translate(224,166)"/>
</svg>
